<svg xmlns="http://www.w3.org/2000/svg" xmlns:xlink="http://www.w3.org/1999/xlink" width="1024" zoomAndPan="magnify" viewBox="0 0 768 576" height="768" preserveAspectRatio="xMidYMid meet" version="1.0"><defs><g/><clipPath id="971b8d30f7"><path d="M 285 361 L 362 361 L 362 397.769531 L 285 397.769531 Z M 285 361 " clip-rule="nonzero"/></clipPath><clipPath id="d4570fca72"><path d="M 268.042969 264 L 289 264 L 289 348 L 268.042969 348 Z M 268.042969 264 " clip-rule="nonzero"/></clipPath><clipPath id="9cba650232"><path d="M 297 222.269531 L 379 222.269531 L 379 253 L 297 253 Z M 297 222.269531 " clip-rule="nonzero"/></clipPath><clipPath id="92bbfcaa3b"><path d="M 394 241 L 442.792969 241 L 442.792969 314 L 394 314 Z M 394 241 " clip-rule="nonzero"/></clipPath><clipPath id="d19645aa32"><path d="M 242 55 L 249 55 L 249 65 L 242 65 Z M 242 55 " clip-rule="nonzero"/></clipPath><clipPath id="ab69aa1813"><path d="M 203.050781 59.9375 L 274.074219 24.222656 L 317.203125 109.988281 L 246.179688 145.707031 Z M 203.050781 59.9375 " clip-rule="nonzero"/></clipPath><clipPath id="40179c62dc"><path d="M 203.050781 59.9375 L 274.074219 24.222656 L 317.203125 109.988281 L 246.179688 145.707031 Z M 203.050781 59.9375 " clip-rule="nonzero"/></clipPath><clipPath id="7b882d6787"><path d="M 203.050781 59.9375 L 274.074219 24.222656 L 317.203125 109.988281 L 246.179688 145.707031 Z M 203.050781 59.9375 " clip-rule="nonzero"/></clipPath><clipPath id="f60b868498"><path d="M 249 48 L 255 48 L 255 55 L 249 55 Z M 249 48 " clip-rule="nonzero"/></clipPath><clipPath id="fe62c4824f"><path d="M 203.050781 59.9375 L 274.074219 24.222656 L 317.203125 109.988281 L 246.179688 145.707031 Z M 203.050781 59.9375 " clip-rule="nonzero"/></clipPath><clipPath id="d0b8c0fcdc"><path d="M 203.050781 59.9375 L 274.074219 24.222656 L 317.203125 109.988281 L 246.179688 145.707031 Z M 203.050781 59.9375 " clip-rule="nonzero"/></clipPath><clipPath id="5353b17836"><path d="M 203.050781 59.9375 L 274.074219 24.222656 L 317.203125 109.988281 L 246.179688 145.707031 Z M 203.050781 59.9375 " clip-rule="nonzero"/></clipPath><clipPath id="d30737b917"><path d="M 207 25 L 288 25 L 288 142 L 207 142 Z M 207 25 " clip-rule="nonzero"/></clipPath><clipPath id="87f66b9bb0"><path d="M 203.050781 59.9375 L 274.074219 24.222656 L 317.203125 109.988281 L 246.179688 145.707031 Z M 203.050781 59.9375 " clip-rule="nonzero"/></clipPath><clipPath id="de52aa173c"><path d="M 203.050781 59.9375 L 274.074219 24.222656 L 317.203125 109.988281 L 246.179688 145.707031 Z M 203.050781 59.9375 " clip-rule="nonzero"/></clipPath><clipPath id="0b520093b7"><path d="M 203.050781 59.9375 L 274.074219 24.222656 L 317.203125 109.988281 L 246.179688 145.707031 Z M 203.050781 59.9375 " clip-rule="nonzero"/></clipPath></defs><path stroke-linecap="butt" transform="matrix(0.75, 0, 0, 0.75, 122.495496, 144.709512)" fill="none" stroke-linejoin="miter" d="M 0.000797405 1.001901 L 209.172681 1.001901 " stroke="#000000" stroke-width="2" stroke-opacity="1" stroke-miterlimit="4"/><path stroke-linecap="butt" transform="matrix(0.75, -0.000000000000000186, 0.000000000000000186, 0.75, 46.239032, 344.621696)" fill="none" stroke-linejoin="miter" d="M -0.00100056 0.999197 L 209.827133 0.999197 " stroke="#000000" stroke-width="2" stroke-opacity="1" stroke-miterlimit="4"/><path stroke-linecap="butt" transform="matrix(0.75, 0, 0, 0.75, 101.160596, 476.11152)" fill="none" stroke-linejoin="miter" d="M -0.000586047 1.002348 L 275.3588 1.002348 " stroke="#000000" stroke-width="2" stroke-opacity="1" stroke-miterlimit="4"/><path stroke-linecap="butt" transform="matrix(0.749998, -0.00155905, 0.00155905, 0.749998, 438.00999, 143.733252)" fill="none" stroke-linejoin="miter" d="M 0.000223486 1.001501 L 200.776703 1.002194 " stroke="#000000" stroke-width="2" stroke-opacity="1" stroke-miterlimit="4"/><path stroke-linecap="butt" transform="matrix(0.749977, 0.00583579, -0.00583579, 0.749977, 511.122747, 334.954343)" fill="none" stroke-linejoin="miter" d="M 0.00035637 0.998404 L 196.443839 1.001117 " stroke="#000000" stroke-width="2" stroke-opacity="1" stroke-miterlimit="4"/><path fill="#38b6ff" d="M 387.582031 115.777344 C 394.640625 116.902344 401.621094 118.394531 408.523438 120.257812 C 415.425781 122.117188 422.210938 124.335938 428.878906 126.910156 C 435.546875 129.484375 442.0625 132.40625 448.421875 135.667969 C 454.785156 138.929688 460.957031 142.515625 466.9375 146.425781 C 472.921875 150.339844 478.683594 154.554688 484.222656 159.074219 C 489.761719 163.59375 495.046875 168.390625 500.082031 173.464844 C 505.113281 178.542969 509.867188 183.867188 514.339844 189.445312 C 518.8125 195.019531 522.976562 200.816406 526.839844 206.832031 L 441.191406 261.8125 C 439.261719 258.804688 437.179688 255.90625 434.941406 253.117188 C 432.707031 250.332031 430.328125 247.667969 427.8125 245.128906 C 425.296875 242.589844 422.652344 240.191406 419.882812 237.933594 C 417.113281 235.671875 414.234375 233.566406 411.242188 231.609375 C 408.25 229.652344 405.164062 227.859375 401.984375 226.230469 C 398.804688 224.597656 395.546875 223.140625 392.210938 221.851562 C 388.878906 220.5625 385.484375 219.453125 382.035156 218.523438 C 378.582031 217.59375 375.09375 216.847656 371.5625 216.285156 Z M 387.582031 115.777344 " fill-opacity="1" fill-rule="nonzero"/><path fill="#8c52ff" d="M 526.839844 206.832031 C 529.066406 210.300781 531.183594 213.835938 533.199219 217.433594 C 535.210938 221.027344 537.109375 224.683594 538.898438 228.394531 C 540.691406 232.109375 542.367188 235.871094 543.925781 239.6875 C 545.488281 243.5 546.933594 247.359375 548.257812 251.261719 C 549.585938 255.164062 550.792969 259.101562 551.878906 263.078125 C 552.96875 267.054688 553.933594 271.058594 554.777344 275.09375 C 555.621094 279.128906 556.34375 283.183594 556.941406 287.261719 C 557.539062 291.339844 558.015625 295.429688 558.363281 299.539062 C 558.710938 303.644531 558.9375 307.757812 559.035156 311.878906 C 559.136719 316 559.109375 320.117188 558.960938 324.238281 C 558.808594 328.355469 558.53125 332.46875 558.132812 336.570312 C 557.730469 340.671875 557.207031 344.757812 556.558594 348.828125 C 555.910156 352.898438 555.136719 356.945312 554.246094 360.96875 C 553.351562 364.992188 552.332031 368.984375 551.195312 372.945312 C 550.058594 376.90625 548.804688 380.832031 547.429688 384.714844 C 546.054688 388.601562 544.5625 392.441406 542.953125 396.234375 L 449.25 356.515625 C 450.859375 352.714844 452.234375 348.835938 453.371094 344.867188 C 454.507812 340.902344 455.402344 336.882812 456.050781 332.808594 C 456.699219 328.734375 457.101562 324.636719 457.253906 320.515625 C 457.402344 316.390625 457.304688 312.277344 456.953125 308.164062 C 456.605469 304.054688 456.007812 299.980469 455.160156 295.941406 C 454.316406 291.90625 453.230469 287.933594 451.902344 284.027344 C 450.574219 280.121094 449.015625 276.308594 447.222656 272.59375 C 445.429688 268.878906 443.421875 265.285156 441.191406 261.8125 Z M 526.839844 206.832031 " fill-opacity="1" fill-rule="nonzero"/><path fill="#00bf63" d="M 542.953125 396.234375 C 541.878906 398.765625 540.757812 401.273438 539.582031 403.757812 C 538.410156 406.238281 537.1875 408.699219 535.914062 411.132812 C 534.640625 413.566406 533.316406 415.976562 531.945312 418.355469 C 530.574219 420.738281 529.15625 423.089844 527.691406 425.414062 C 526.226562 427.734375 524.714844 430.027344 523.15625 432.292969 C 521.59375 434.554688 519.992188 436.78125 518.34375 438.980469 C 516.691406 441.175781 515 443.339844 513.261719 445.46875 C 511.527344 447.597656 509.746094 449.691406 507.925781 451.746094 C 506.105469 453.804688 504.242188 455.824219 502.339844 457.804688 C 500.4375 459.785156 498.492188 461.726562 496.511719 463.628906 C 494.53125 465.53125 492.511719 467.394531 490.453125 469.214844 C 488.394531 471.035156 486.304688 472.8125 484.175781 474.550781 C 482.042969 476.285156 479.882812 477.976562 477.683594 479.625 C 475.484375 481.273438 473.253906 482.878906 470.992188 484.4375 C 468.730469 485.996094 466.4375 487.507812 464.113281 488.972656 C 461.789062 490.4375 459.4375 491.855469 457.054688 493.226562 C 454.675781 494.59375 452.265625 495.917969 449.832031 497.1875 C 447.398438 498.460938 444.9375 499.683594 442.453125 500.855469 C 439.96875 502.03125 437.460938 503.152344 434.933594 504.222656 C 432.402344 505.296875 429.851562 506.316406 427.28125 507.285156 C 424.710938 508.25 422.121094 509.167969 419.511719 510.03125 C 416.90625 510.894531 414.28125 511.703125 411.640625 512.460938 C 409 513.21875 406.34375 513.921875 403.671875 514.570312 C 401.003906 515.222656 398.324219 515.816406 395.628906 516.355469 C 392.9375 516.898438 390.234375 517.382812 387.519531 517.816406 C 384.804688 518.246094 382.085938 518.625 379.355469 518.945312 C 376.628906 519.265625 373.894531 519.53125 371.15625 519.742188 C 368.417969 519.953125 365.675781 520.109375 362.929688 520.210938 C 360.183594 520.308594 357.4375 520.351562 354.691406 520.339844 C 351.941406 520.328125 349.195312 520.261719 346.453125 520.140625 C 343.707031 520.015625 340.96875 519.839844 338.230469 519.605469 C 335.492188 519.371094 332.761719 519.082031 330.035156 518.738281 L 342.789062 417.765625 C 345.515625 418.109375 348.253906 418.34375 351 418.464844 C 353.746094 418.589844 356.492188 418.601562 359.238281 418.5 C 361.984375 418.402344 364.722656 418.191406 367.449219 417.867188 C 370.179688 417.546875 372.890625 417.117188 375.585938 416.574219 C 378.28125 416.035156 380.949219 415.382812 383.59375 414.625 C 386.234375 413.871094 388.839844 413.007812 391.414062 412.039062 C 393.984375 411.070312 396.511719 410 399 408.824219 C 401.484375 407.652344 403.917969 406.378906 406.300781 405.007812 C 408.683594 403.636719 411.003906 402.171875 413.269531 400.613281 C 415.53125 399.054688 417.730469 397.40625 419.859375 395.671875 C 421.988281 393.933594 424.046875 392.113281 426.027344 390.210938 C 428.011719 388.308594 429.914062 386.328125 431.734375 384.269531 C 433.558594 382.210938 435.292969 380.085938 436.945312 377.886719 C 438.59375 375.6875 440.152344 373.425781 441.617188 371.101562 C 443.085938 368.777344 444.453125 366.398438 445.730469 363.960938 C 447.003906 361.527344 448.175781 359.042969 449.25 356.515625 Z M 542.953125 396.234375 " fill-opacity="1" fill-rule="nonzero"/><path fill="#ffde59" d="M 330.035156 518.738281 C 325.402344 518.152344 320.792969 517.410156 316.207031 516.507812 C 311.625 515.601562 307.078125 514.542969 302.566406 513.328125 C 298.054688 512.113281 293.59375 510.742188 289.175781 509.21875 C 284.761719 507.695312 280.402344 506.023438 276.101562 504.199219 C 271.800781 502.375 267.566406 500.40625 263.402344 498.292969 C 259.234375 496.179688 255.148438 493.921875 251.136719 491.527344 C 247.128906 489.128906 243.203125 486.597656 239.367188 483.933594 C 235.53125 481.265625 231.792969 478.472656 228.148438 475.546875 C 224.503906 472.625 220.96875 469.578125 217.535156 466.410156 C 214.097656 463.242188 210.777344 459.960938 207.570312 456.566406 C 204.363281 453.167969 201.277344 449.667969 198.308594 446.058594 C 195.34375 442.449219 192.503906 438.742188 189.792969 434.941406 C 187.082031 431.136719 184.503906 427.242188 182.058594 423.261719 C 179.617188 419.28125 177.3125 415.21875 175.148438 411.078125 C 172.984375 406.9375 170.964844 402.730469 169.089844 398.449219 C 167.21875 394.171875 165.492188 389.832031 163.917969 385.433594 L 259.730469 351.113281 C 260.519531 353.3125 261.382812 355.480469 262.316406 357.621094 C 263.253906 359.761719 264.265625 361.867188 265.347656 363.9375 C 266.429688 366.003906 267.582031 368.035156 268.800781 370.027344 C 270.023438 372.019531 271.3125 373.964844 272.667969 375.867188 C 274.023438 377.769531 275.445312 379.621094 276.925781 381.425781 C 278.410156 383.230469 279.953125 384.980469 281.558594 386.679688 C 283.160156 388.378906 284.820312 390.019531 286.539062 391.601562 C 288.257812 393.183594 290.023438 394.707031 291.847656 396.171875 C 293.667969 397.632812 295.539062 399.03125 297.457031 400.363281 C 299.375 401.695312 301.335938 402.960938 303.339844 404.160156 C 305.347656 405.355469 307.390625 406.484375 309.472656 407.542969 C 311.554688 408.601562 313.671875 409.585938 315.824219 410.496094 C 317.972656 411.40625 320.152344 412.246094 322.359375 413.003906 C 324.570312 413.765625 326.800781 414.453125 329.054688 415.058594 C 331.3125 415.667969 333.585938 416.199219 335.875 416.648438 C 338.167969 417.101562 340.472656 417.472656 342.789062 417.765625 Z M 330.035156 518.738281 " fill-opacity="1" fill-rule="nonzero"/><path fill="#ff66c4" d="M 163.917969 385.433594 C 162.25 380.777344 160.753906 376.066406 159.429688 371.300781 C 158.101562 366.535156 156.953125 361.726562 155.980469 356.875 C 155.003906 352.027344 154.210938 347.148438 153.589844 342.242188 C 152.972656 337.332031 152.535156 332.410156 152.273438 327.46875 C 152.015625 322.53125 151.933594 317.585938 152.035156 312.640625 C 152.136719 307.695312 152.417969 302.761719 152.878906 297.835938 C 153.339844 292.910156 153.980469 288.007812 154.796875 283.128906 C 155.613281 278.25 156.609375 273.410156 157.78125 268.601562 C 158.953125 263.796875 160.296875 259.039062 161.8125 254.332031 C 163.332031 249.625 165.019531 244.976562 166.875 240.394531 C 168.730469 235.808594 170.753906 231.296875 172.9375 226.859375 C 175.125 222.421875 177.46875 218.070312 179.972656 213.804688 C 182.472656 209.535156 185.128906 205.367188 187.933594 201.292969 C 190.742188 197.21875 193.695312 193.253906 196.789062 189.398438 C 199.886719 185.539062 203.117188 181.796875 206.484375 178.175781 C 209.855469 174.554688 213.351562 171.058594 216.972656 167.691406 L 286.257812 242.242188 C 284.449219 243.925781 282.699219 245.671875 281.015625 247.484375 C 279.332031 249.296875 277.714844 251.164062 276.167969 253.09375 C 274.617188 255.023438 273.144531 257.007812 271.738281 259.042969 C 270.335938 261.078125 269.007812 263.164062 267.757812 265.296875 C 266.507812 267.429688 265.335938 269.605469 264.242188 271.824219 C 263.148438 274.042969 262.136719 276.300781 261.210938 278.59375 C 260.28125 280.886719 259.4375 283.207031 258.679688 285.5625 C 257.921875 287.917969 257.25 290.292969 256.664062 292.699219 C 256.078125 295.101562 255.578125 297.523438 255.171875 299.960938 C 254.761719 302.398438 254.441406 304.851562 254.210938 307.3125 C 253.980469 309.777344 253.839844 312.242188 253.789062 314.714844 C 253.738281 317.191406 253.78125 319.660156 253.910156 322.128906 C 254.039062 324.601562 254.257812 327.0625 254.566406 329.515625 C 254.878906 331.96875 255.273438 334.410156 255.761719 336.835938 C 256.25 339.257812 256.824219 341.664062 257.488281 344.046875 C 258.148438 346.429688 258.898438 348.785156 259.730469 351.113281 Z M 163.917969 385.433594 " fill-opacity="1" fill-rule="nonzero"/><path fill="#ff3131" d="M 216.972656 167.691406 C 219.792969 165.074219 222.679688 162.535156 225.640625 160.082031 C 228.601562 157.628906 231.632812 155.257812 234.726562 152.976562 C 237.820312 150.691406 240.980469 148.5 244.199219 146.394531 C 247.417969 144.292969 250.695312 142.28125 254.03125 140.363281 C 257.363281 138.445312 260.75 136.621094 264.1875 134.894531 C 267.621094 133.167969 271.105469 131.542969 274.636719 130.011719 C 278.164062 128.484375 281.734375 127.054688 285.34375 125.730469 C 288.957031 124.402344 292.601562 123.179688 296.28125 122.058594 C 299.960938 120.941406 303.667969 119.925781 307.40625 119.015625 C 311.140625 118.105469 314.902344 117.304688 318.683594 116.605469 C 322.46875 115.910156 326.265625 115.320312 330.082031 114.839844 C 333.898438 114.359375 337.726562 113.988281 341.5625 113.722656 C 345.398438 113.457031 349.242188 113.300781 353.085938 113.257812 C 356.933594 113.210938 360.777344 113.273438 364.621094 113.445312 C 368.460938 113.613281 372.296875 113.894531 376.121094 114.285156 C 379.949219 114.671875 383.761719 115.171875 387.558594 115.773438 L 371.550781 216.285156 C 367.75 215.679688 363.925781 215.289062 360.082031 215.117188 C 356.238281 214.945312 352.394531 214.992188 348.554688 215.257812 C 344.714844 215.523438 340.898438 216.003906 337.113281 216.699219 C 333.328125 217.394531 329.59375 218.304688 325.914062 219.425781 C 322.230469 220.546875 318.621094 221.871094 315.089844 223.402344 C 311.558594 224.933594 308.125 226.65625 304.789062 228.578125 C 301.449219 230.496094 298.234375 232.597656 295.136719 234.882812 C 292.039062 237.167969 289.078125 239.621094 286.257812 242.242188 Z M 216.972656 167.691406 " fill-opacity="1" fill-rule="nonzero"/><path stroke-linecap="butt" transform="matrix(0.75, 0, 0, 0.75, 503.377251, 449.401297)" fill="none" stroke-linejoin="miter" d="M 0.00220697 1.001395 L 257.194926 1.001395 " stroke="#000000" stroke-width="2" stroke-opacity="1" stroke-miterlimit="4"/><path fill="#000000" d="M 433.882812 330.609375 C 432.996094 330.40625 432.148438 330.949219 431.945312 331.800781 C 428.714844 345.394531 422.320312 357.691406 413.410156 367.433594 C 408.957031 372.710938 403.480469 376.972656 398.3125 380.71875 L 391.820312 384.667969 L 384.949219 388.007812 C 384.710938 388.109375 384.4375 388.179688 384.203125 388.28125 C 384.234375 388.246094 384.269531 388.210938 384.304688 388.210938 C 385.050781 387.667969 385.765625 387.054688 386.445312 386.472656 C 386.71875 386.234375 386.988281 385.996094 387.296875 385.757812 L 387.464844 385.589844 C 389.300781 383.917969 391.207031 382.148438 392.089844 379.59375 C 392.394531 378.742188 391.921875 377.824219 391.105469 377.550781 C 390.253906 377.277344 389.335938 377.71875 389.0625 378.570312 C 388.453125 380.34375 386.988281 381.671875 385.222656 383.308594 C 384.914062 383.546875 384.644531 383.816406 384.335938 384.089844 C 383.726562 384.636719 383.113281 385.179688 382.46875 385.621094 C 381.617188 386.234375 380.496094 387.054688 379.476562 388.007812 C 378.453125 388.960938 378.082031 390.425781 378.554688 391.753906 C 379.03125 393.082031 380.1875 393.96875 381.617188 394.070312 C 382.261719 394.105469 382.976562 394.140625 383.757812 394.140625 C 384.335938 394.140625 384.984375 394.140625 385.699219 394.105469 C 386.683594 394.105469 387.601562 393.96875 388.519531 393.832031 C 388.960938 393.765625 389.4375 393.695312 389.949219 393.628906 C 392.125 393.320312 394.675781 393.152344 397.53125 393.117188 C 398.414062 393.117188 399.128906 392.367188 399.128906 391.480469 C 399.128906 390.597656 398.414062 389.882812 397.496094 389.882812 C 394.503906 389.882812 391.816406 390.085938 389.539062 390.425781 C 389.03125 390.496094 388.554688 390.5625 388.042969 390.628906 C 387.667969 390.699219 387.261719 390.734375 386.886719 390.800781 L 393.449219 387.632812 L 400.183594 383.546875 C 405.589844 379.628906 411.269531 375.199219 415.894531 369.714844 C 425.144531 359.597656 431.808594 346.789062 435.140625 332.6875 C 435.277344 331.699219 434.765625 330.8125 433.882812 330.609375 Z M 433.882812 330.609375 " fill-opacity="1" fill-rule="nonzero"/><g clip-path="url(#971b8d30f7)"><path fill="#000000" d="M 359.988281 394.207031 C 346.046875 395.261719 332.34375 392.980469 320.441406 387.632812 C 308.984375 382.421875 299.085938 375.027344 291.605469 366.136719 L 294.9375 368.285156 C 297.320312 369.886719 299.835938 370.804688 302.25 370.976562 C 303.132812 371.007812 303.917969 370.363281 303.984375 369.476562 C 304.050781 368.589844 303.371094 367.808594 302.488281 367.738281 C 300.652344 367.601562 298.644531 366.886719 296.742188 365.558594 L 290.484375 361.539062 C 289.292969 360.824219 287.832031 360.925781 286.675781 361.746094 C 285.519531 362.597656 285.007812 364.027344 285.316406 365.320312 C 285.757812 367.46875 286.675781 369.476562 287.558594 371.417969 C 287.796875 371.964844 288.070312 372.542969 288.34375 373.15625 C 288.613281 373.734375 288.886719 374.382812 289.125 374.960938 C 289.394531 375.609375 289.667969 376.253906 289.941406 376.835938 C 290.484375 378.0625 290.890625 379.117188 291.164062 380.105469 C 291.367188 380.820312 292.015625 381.296875 292.730469 381.296875 C 292.863281 381.296875 293 381.261719 293.136719 381.230469 C 293.988281 380.992188 294.496094 380.105469 294.292969 379.253906 C 293.988281 378.09375 293.511719 376.835938 292.863281 375.472656 C 292.59375 374.925781 292.355469 374.3125 292.117188 373.734375 C 291.84375 373.085938 291.574219 372.40625 291.300781 371.828125 C 291.0625 371.246094 290.789062 370.667969 290.519531 370.089844 C 290.417969 369.886719 290.347656 369.679688 290.246094 369.476562 C 297.898438 378.164062 307.757812 385.417969 319.152344 390.597656 C 329.589844 395.296875 341.320312 397.714844 353.394531 397.714844 C 355.671875 397.714844 357.984375 397.613281 360.261719 397.441406 C 361.144531 397.375 361.828125 396.589844 361.757812 395.707031 C 361.65625 394.820312 360.90625 394.171875 359.988281 394.207031 Z M 359.988281 394.207031 " fill-opacity="1" fill-rule="nonzero"/></g><g clip-path="url(#d4570fca72)"><path fill="#000000" d="M 285.859375 282 C 285.484375 280.261719 285.554688 278.117188 286.097656 275.800781 C 286.269531 275.222656 286.4375 274.644531 286.609375 274.03125 C 287.117188 272.222656 287.695312 270.351562 288.003906 268.578125 C 288.34375 267.285156 287.832031 265.886719 286.742188 265.035156 C 285.585938 264.183594 284.058594 264.082031 282.730469 264.867188 C 281.03125 266.023438 279.332031 267.488281 277.699219 268.921875 L 276.371094 270.078125 C 275.929688 270.488281 275.488281 270.894531 275.046875 271.304688 C 273.585938 272.699219 272.15625 273.996094 270.660156 274.914062 C 269.910156 275.390625 269.671875 276.378906 270.117188 277.128906 C 270.589844 277.878906 271.578125 278.117188 272.324219 277.675781 C 274.09375 276.585938 275.691406 275.085938 277.222656 273.65625 C 277.664062 273.246094 278.074219 272.835938 278.480469 272.496094 L 279.808594 271.371094 C 280.046875 271.167969 280.25 270.996094 280.488281 270.792969 C 274.503906 281.113281 270.660156 292.765625 269.332031 304.859375 C 268.042969 318.890625 270.183594 333.199219 275.523438 346.144531 C 275.792969 346.757812 276.371094 347.128906 277.019531 347.128906 C 277.222656 347.128906 277.425781 347.097656 277.628906 346.996094 C 278.445312 346.652344 278.855469 345.699219 278.515625 344.882812 C 273.378906 332.382812 271.339844 318.652344 272.5625 305.128906 C 273.890625 292.933594 277.867188 281.21875 284.125 270.964844 C 283.921875 271.679688 283.75 272.359375 283.546875 273.042969 C 283.378906 273.65625 283.207031 274.234375 283.003906 274.914062 C 282.324219 277.777344 282.253906 280.367188 282.730469 282.613281 C 282.902344 283.363281 283.582031 283.875 284.296875 283.875 C 284.398438 283.875 284.535156 283.875 284.636719 283.839844 C 285.484375 283.738281 286.03125 282.886719 285.859375 282 Z M 285.859375 282 " fill-opacity="1" fill-rule="nonzero"/></g><g clip-path="url(#9cba650232)"><path fill="#000000" d="M 377.367188 231.382812 C 375.324219 229.816406 372.878906 228.214844 370.429688 226.851562 C 367.84375 225.523438 365.769531 224.332031 364.105469 222.898438 C 363.425781 222.320312 362.40625 222.386719 361.828125 223.070312 C 361.25 223.75 361.316406 224.773438 361.996094 225.351562 C 363.902344 226.988281 366.144531 228.28125 368.898438 229.679688 C 369.679688 230.121094 370.464844 230.5625 371.210938 231.039062 C 359.242188 228.453125 346.933594 228.382812 335.234375 230.90625 L 330.203125 232.199219 C 329.929688 232.265625 329.65625 232.335938 329.386719 232.402344 C 328.773438 232.539062 328.195312 232.710938 327.617188 232.914062 L 320.203125 235.640625 L 313.132812 239.046875 C 312.621094 239.320312 312.113281 239.625 311.636719 239.929688 L 306.398438 243.132812 C 305.445312 243.78125 304.5625 244.460938 303.644531 245.144531 C 303.167969 245.519531 302.65625 245.894531 302.183594 246.234375 L 301.707031 246.574219 C 300.449219 247.492188 299.15625 248.449219 298 249.605469 C 297.351562 250.21875 297.351562 251.273438 298 251.886719 C 298.304688 252.195312 298.746094 252.363281 299.15625 252.363281 C 299.5625 252.363281 299.972656 252.195312 300.277344 251.886719 C 301.296875 250.898438 302.421875 250.046875 303.644531 249.128906 L 304.121094 248.789062 C 304.628906 248.414062 305.105469 248.039062 305.617188 247.664062 C 306.464844 247.015625 307.351562 246.371094 308.167969 245.789062 L 313.371094 242.621094 C 313.8125 242.351562 314.289062 242.078125 314.660156 241.839844 L 321.496094 238.535156 L 328.773438 235.878906 C 329.25 235.707031 329.726562 235.605469 330.203125 235.46875 C 330.507812 235.402344 330.8125 235.300781 331.085938 235.230469 L 336.015625 233.96875 C 347.613281 231.484375 359.921875 231.652344 371.859375 234.414062 C 371.652344 234.414062 371.484375 234.414062 371.3125 234.414062 C 370.191406 234.414062 369.035156 234.449219 367.878906 234.582031 C 365.398438 234.890625 362.777344 235.367188 360.566406 236.660156 C 359.785156 237.105469 359.546875 238.09375 359.988281 238.875 C 360.296875 239.386719 360.839844 239.660156 361.382812 239.660156 C 361.65625 239.660156 361.929688 239.589844 362.199219 239.421875 C 363.902344 238.433594 366.109375 238.023438 368.21875 237.785156 C 369.273438 237.683594 370.292969 237.683594 371.347656 237.648438 C 372.742188 237.613281 374.203125 237.613281 375.632812 237.375 C 377.027344 237.171875 378.183594 236.183594 378.554688 234.789062 C 378.929688 233.628906 378.488281 232.265625 377.367188 231.382812 Z M 377.367188 231.382812 " fill-opacity="1" fill-rule="nonzero"/></g><g clip-path="url(#92bbfcaa3b)"><path fill="#000000" d="M 441.601562 293.820312 C 440.785156 293.480469 439.832031 293.855469 439.492188 294.671875 C 438.539062 296.953125 437.960938 299.507812 437.417969 302.675781 C 437.316406 303.425781 437.113281 304.277344 436.910156 305.199219 C 434.425781 279.105469 419.089844 254.476562 396.613281 241.226562 C 395.832031 240.78125 394.84375 241.023438 394.402344 241.804688 C 393.960938 242.589844 394.199219 243.578125 394.980469 244.019531 C 416.949219 256.996094 431.84375 281.351562 433.78125 306.96875 C 433.746094 306.902344 433.746094 306.867188 433.710938 306.800781 C 433.304688 305.539062 432.894531 304.277344 432.316406 303.152344 C 431.332031 300.972656 430.109375 298.523438 428.136719 296.785156 C 427.457031 296.207031 426.433594 296.273438 425.855469 296.921875 C 425.277344 297.601562 425.347656 298.625 425.992188 299.203125 C 427.488281 300.496094 428.507812 302.609375 429.394531 304.515625 C 429.871094 305.503906 430.242188 306.5625 430.617188 307.785156 C 431.09375 309.25 431.535156 310.375 432.011719 311.398438 C 432.589844 312.625 433.8125 313.40625 435.207031 313.40625 C 435.242188 313.40625 435.308594 313.40625 435.34375 313.40625 C 436.738281 313.339844 437.929688 312.523438 438.4375 311.191406 C 438.847656 310.101562 439.253906 308.878906 439.664062 307.34375 C 440.140625 305.710938 440.445312 304.378906 440.613281 303.1875 C 441.125 300.292969 441.636719 297.941406 442.484375 295.933594 C 442.792969 295.113281 442.417969 294.160156 441.601562 293.820312 Z M 441.601562 293.820312 " fill-opacity="1" fill-rule="nonzero"/></g><g clip-path="url(#d19645aa32)"><g clip-path="url(#ab69aa1813)"><g clip-path="url(#40179c62dc)"><g clip-path="url(#7b882d6787)"><path fill="#231f20" d="M 242.355469 55.734375 L 246.601562 64.316406 L 248.925781 62.695312 Z M 242.355469 55.734375 " fill-opacity="1" fill-rule="nonzero"/></g></g></g></g><g clip-path="url(#f60b868498)"><g clip-path="url(#fe62c4824f)"><g clip-path="url(#d0b8c0fcdc)"><g clip-path="url(#5353b17836)"><path fill="#231f20" d="M 254.089844 53.785156 C 254.988281 53.15625 255.261719 52.378906 254.40625 51.152344 L 253.351562 49.636719 C 252.585938 48.539062 251.878906 48.316406 251.023438 48.910156 L 249.859375 49.722656 L 253.148438 54.441406 L 254.09375 53.785156 Z M 254.089844 53.785156 " fill-opacity="1" fill-rule="nonzero"/></g></g></g></g><g clip-path="url(#d30737b917)"><g clip-path="url(#87f66b9bb0)"><g clip-path="url(#de52aa173c)"><g clip-path="url(#0b520093b7)"><path fill="#231f20" d="M 287.699219 51.339844 L 268.707031 45.648438 L 270.851562 25.9375 L 210.535156 65.953125 C 210.535156 65.953125 207.183594 68.15625 207.183594 68.15625 L 255.109375 141.136719 L 261.808594 136.734375 L 230.605469 89.214844 L 287.695312 51.339844 Z M 261.492188 38.359375 L 263.019531 40.550781 L 260.496094 42.308594 L 269.671875 55.480469 L 267.257812 57.164062 L 258.085938 43.992188 L 255.5625 45.75 L 254.03125 43.554688 L 261.488281 38.359375 Z M 249.5625 46.671875 C 252.058594 44.929688 253.949219 45.34375 255.597656 47.714844 L 256.4375 48.921875 C 257.539062 50.503906 257.753906 51.886719 257.03125 53.140625 C 258.589844 52.804688 259.792969 53.691406 260.910156 55.292969 L 262.5625 57.664062 C 263.082031 58.410156 263.484375 58.945312 264.125 59.347656 L 261.667969 61.058594 C 261.261719 60.753906 261.003906 60.574219 260.136719 59.324219 L 258.453125 56.910156 C 257.460938 55.484375 256.613281 55.292969 255.515625 56.054688 L 254.679688 56.636719 L 259.039062 62.894531 L 256.625 64.574219 L 245.925781 49.210938 L 249.566406 46.671875 Z M 238.816406 54.160156 L 242.347656 51.699219 L 255.503906 65.355469 L 253.070312 67.050781 L 250.710938 64.554688 L 247.75 66.617188 L 249.273438 69.695312 L 247.058594 71.238281 Z M 236.773438 55.582031 L 238.304688 57.777344 L 235.78125 59.535156 L 244.953125 72.707031 L 242.539062 74.386719 L 233.367188 61.214844 L 230.84375 62.972656 L 229.3125 60.78125 L 236.769531 55.582031 Z M 224.9375 63.566406 C 227.285156 61.929688 229.46875 62.496094 231.183594 64.957031 L 231.519531 65.4375 L 229.238281 67.027344 L 228.792969 66.390625 C 228.03125 65.292969 227.300781 65.183594 226.535156 65.714844 C 225.765625 66.25 225.617188 66.976562 226.382812 68.070312 C 228.585938 71.234375 233.714844 68.539062 236.769531 72.929688 C 238.484375 75.386719 238.230469 77.648438 235.863281 79.300781 C 233.496094 80.949219 231.289062 80.402344 229.574219 77.941406 L 228.917969 76.996094 L 231.199219 75.40625 L 231.960938 76.503906 C 232.726562 77.601562 233.484375 77.660156 234.253906 77.125 C 235.019531 76.589844 235.226562 75.859375 234.460938 74.761719 C 232.261719 71.601562 227.132812 74.296875 224.074219 69.90625 C 222.363281 67.449219 222.589844 65.203125 224.9375 63.566406 Z M 224.9375 63.566406 " fill-opacity="1" fill-rule="nonzero"/></g></g></g></g><g fill="#000000" fill-opacity="1"><g transform="translate(442.16883, 207.502394)"><g><path d="M 7.90625 0.171875 C 6.613281 0.171875 5.457031 -0.0351562 4.4375 -0.453125 C 3.425781 -0.867188 2.613281 -1.484375 2 -2.296875 C 1.394531 -3.117188 1.078125 -4.101562 1.046875 -5.25 L 5.59375 -5.25 C 5.664062 -4.601562 5.890625 -4.109375 6.265625 -3.765625 C 6.648438 -3.421875 7.15625 -3.25 7.78125 -3.25 C 8.40625 -3.25 8.898438 -3.394531 9.265625 -3.6875 C 9.640625 -3.976562 9.828125 -4.382812 9.828125 -4.90625 C 9.828125 -5.332031 9.679688 -5.6875 9.390625 -5.96875 C 9.097656 -6.257812 8.738281 -6.492188 8.3125 -6.671875 C 7.882812 -6.859375 7.28125 -7.066406 6.5 -7.296875 C 5.363281 -7.648438 4.4375 -8 3.71875 -8.34375 C 3.007812 -8.695312 2.394531 -9.210938 1.875 -9.890625 C 1.351562 -10.578125 1.09375 -11.472656 1.09375 -12.578125 C 1.09375 -14.210938 1.6875 -15.488281 2.875 -16.40625 C 4.0625 -17.332031 5.601562 -17.796875 7.5 -17.796875 C 9.4375 -17.796875 10.992188 -17.332031 12.171875 -16.40625 C 13.359375 -15.488281 13.992188 -14.203125 14.078125 -12.546875 L 9.453125 -12.546875 C 9.421875 -13.117188 9.210938 -13.566406 8.828125 -13.890625 C 8.441406 -14.210938 7.945312 -14.375 7.34375 -14.375 C 6.832031 -14.375 6.414062 -14.234375 6.09375 -13.953125 C 5.78125 -13.679688 5.625 -13.289062 5.625 -12.78125 C 5.625 -12.207031 5.890625 -11.757812 6.421875 -11.4375 C 6.953125 -11.125 7.785156 -10.785156 8.921875 -10.421875 C 10.054688 -10.035156 10.976562 -9.664062 11.6875 -9.3125 C 12.394531 -8.96875 13.003906 -8.460938 13.515625 -7.796875 C 14.035156 -7.128906 14.296875 -6.269531 14.296875 -5.21875 C 14.296875 -4.21875 14.039062 -3.3125 13.53125 -2.5 C 13.03125 -1.6875 12.296875 -1.035156 11.328125 -0.546875 C 10.359375 -0.0664062 9.21875 0.171875 7.90625 0.171875 Z M 7.90625 0.171875 "/></g></g></g><g fill="#000000" fill-opacity="1"><g transform="translate(307.714996, 182.429484)"><g><path d="M 12.46875 -3.09375 L 5.921875 -3.09375 L 4.875 0 L 0.40625 0 L 6.75 -17.546875 L 11.703125 -17.546875 L 18.046875 0 L 13.53125 0 Z M 11.375 -6.40625 L 9.203125 -12.828125 L 7.046875 -6.40625 Z M 11.375 -6.40625 "/></g></g></g><g fill="#000000" fill-opacity="1"><g transform="translate(503.316003, 306.554918)"><g><path d="M 14.921875 -11.90625 C 14.921875 -10.882812 14.6875 -9.953125 14.21875 -9.109375 C 13.757812 -8.265625 13.046875 -7.582031 12.078125 -7.0625 C 11.109375 -6.550781 9.90625 -6.296875 8.46875 -6.296875 L 5.828125 -6.296875 L 5.828125 0 L 1.546875 0 L 1.546875 -17.546875 L 8.46875 -17.546875 C 9.875 -17.546875 11.054688 -17.300781 12.015625 -16.8125 C 12.984375 -16.332031 13.707031 -15.664062 14.1875 -14.8125 C 14.675781 -13.96875 14.921875 -13 14.921875 -11.90625 Z M 8.15625 -9.703125 C 8.96875 -9.703125 9.570312 -9.890625 9.96875 -10.265625 C 10.375 -10.648438 10.578125 -11.195312 10.578125 -11.90625 C 10.578125 -12.601562 10.375 -13.140625 9.96875 -13.515625 C 9.570312 -13.898438 8.96875 -14.09375 8.15625 -14.09375 L 5.828125 -14.09375 L 5.828125 -9.703125 Z M 8.15625 -9.703125 "/></g></g></g><g fill="#000000" fill-opacity="1"><g transform="translate(122.495496, 135.060842)"><g><path d="M 11.71875 -3.71875 L 4.4375 -3.71875 L 3.09375 0 L 0.796875 0 L 6.828125 -16.59375 L 9.34375 -16.59375 L 15.359375 0 L 13.046875 0 Z M 11.09375 -5.484375 L 8.078125 -13.921875 L 5.046875 -5.484375 Z M 11.09375 -5.484375 "/></g></g></g><g fill="#000000" fill-opacity="1"><g transform="translate(137.417973, 135.060842)"><g><path d="M 6.484375 0.21875 C 5.484375 0.21875 4.582031 0.046875 3.78125 -0.296875 C 2.988281 -0.640625 2.359375 -1.117188 1.890625 -1.734375 C 1.429688 -2.347656 1.175781 -3.054688 1.125 -3.859375 L 3.375 -3.859375 C 3.4375 -3.203125 3.742188 -2.664062 4.296875 -2.25 C 4.847656 -1.832031 5.570312 -1.625 6.46875 -1.625 C 7.300781 -1.625 7.957031 -1.804688 8.4375 -2.171875 C 8.914062 -2.546875 9.15625 -3.007812 9.15625 -3.5625 C 9.15625 -4.144531 8.894531 -4.570312 8.375 -4.84375 C 7.863281 -5.125 7.078125 -5.398438 6.015625 -5.671875 C 5.035156 -5.929688 4.238281 -6.191406 3.625 -6.453125 C 3.007812 -6.710938 2.484375 -7.101562 2.046875 -7.625 C 1.609375 -8.144531 1.390625 -8.828125 1.390625 -9.671875 C 1.390625 -10.347656 1.585938 -10.960938 1.984375 -11.515625 C 2.390625 -12.078125 2.957031 -12.519531 3.6875 -12.84375 C 4.425781 -13.175781 5.265625 -13.34375 6.203125 -13.34375 C 7.660156 -13.34375 8.832031 -12.972656 9.71875 -12.234375 C 10.613281 -11.503906 11.09375 -10.5 11.15625 -9.21875 L 8.984375 -9.21875 C 8.929688 -9.90625 8.65625 -10.457031 8.15625 -10.875 C 7.65625 -11.289062 6.976562 -11.5 6.125 -11.5 C 5.34375 -11.5 4.71875 -11.328125 4.25 -10.984375 C 3.789062 -10.648438 3.5625 -10.210938 3.5625 -9.671875 C 3.5625 -9.242188 3.703125 -8.890625 3.984375 -8.609375 C 4.265625 -8.328125 4.613281 -8.101562 5.03125 -7.9375 C 5.457031 -7.769531 6.046875 -7.582031 6.796875 -7.375 C 7.742188 -7.125 8.507812 -6.875 9.09375 -6.625 C 9.6875 -6.375 10.195312 -6 10.625 -5.5 C 11.050781 -5.007812 11.269531 -4.363281 11.28125 -3.5625 C 11.28125 -2.84375 11.078125 -2.195312 10.671875 -1.625 C 10.273438 -1.050781 9.710938 -0.597656 8.984375 -0.265625 C 8.265625 0.0546875 7.429688 0.21875 6.484375 0.21875 Z M 6.484375 0.21875 "/></g></g></g><g fill="#000000" fill-opacity="1"><g transform="translate(148.699569, 135.060842)"><g><path d="M 4.03125 -10.703125 C 4.457031 -11.453125 5.097656 -12.078125 5.953125 -12.578125 C 6.804688 -13.085938 7.800781 -13.34375 8.9375 -13.34375 C 10.101562 -13.34375 11.160156 -13.0625 12.109375 -12.5 C 13.054688 -11.945312 13.800781 -11.160156 14.34375 -10.140625 C 14.882812 -9.128906 15.15625 -7.953125 15.15625 -6.609375 C 15.15625 -5.285156 14.882812 -4.101562 14.34375 -3.0625 C 13.800781 -2.03125 13.054688 -1.222656 12.109375 -0.640625 C 11.160156 -0.0664062 10.101562 0.21875 8.9375 0.21875 C 7.820312 0.21875 6.832031 -0.03125 5.96875 -0.53125 C 5.113281 -1.039062 4.46875 -1.671875 4.03125 -2.421875 L 4.03125 6.234375 L 1.84375 6.234375 L 1.84375 -13.125 L 4.03125 -13.125 Z M 12.9375 -6.609375 C 12.9375 -7.597656 12.734375 -8.457031 12.328125 -9.1875 C 11.929688 -9.925781 11.394531 -10.488281 10.71875 -10.875 C 10.039062 -11.257812 9.296875 -11.453125 8.484375 -11.453125 C 7.679688 -11.453125 6.941406 -11.253906 6.265625 -10.859375 C 5.585938 -10.472656 5.046875 -9.90625 4.640625 -9.15625 C 4.234375 -8.414062 4.03125 -7.5625 4.03125 -6.59375 C 4.03125 -5.601562 4.234375 -4.734375 4.640625 -3.984375 C 5.046875 -3.242188 5.585938 -2.675781 6.265625 -2.28125 C 6.941406 -1.894531 7.679688 -1.703125 8.484375 -1.703125 C 9.296875 -1.703125 10.039062 -1.894531 10.71875 -2.28125 C 11.394531 -2.675781 11.929688 -3.242188 12.328125 -3.984375 C 12.734375 -4.734375 12.9375 -5.609375 12.9375 -6.609375 Z M 12.9375 -6.609375 "/></g></g></g><g fill="#000000" fill-opacity="1"><g transform="translate(163.669951, 135.060842)"><g><path d="M 2.96875 -15.265625 C 2.550781 -15.265625 2.195312 -15.40625 1.90625 -15.6875 C 1.625 -15.976562 1.484375 -16.332031 1.484375 -16.75 C 1.484375 -17.15625 1.625 -17.503906 1.90625 -17.796875 C 2.195312 -18.085938 2.550781 -18.234375 2.96875 -18.234375 C 3.363281 -18.234375 3.703125 -18.085938 3.984375 -17.796875 C 4.265625 -17.503906 4.40625 -17.15625 4.40625 -16.75 C 4.40625 -16.332031 4.265625 -15.976562 3.984375 -15.6875 C 3.703125 -15.40625 3.363281 -15.265625 2.96875 -15.265625 Z M 4.03125 -13.125 L 4.03125 0 L 1.84375 0 L 1.84375 -13.125 Z M 4.03125 -13.125 "/></g></g></g><g fill="#000000" fill-opacity="1"><g transform="translate(168.340457, 135.060842)"><g><path d="M 4.03125 -11 C 4.40625 -11.75 4.945312 -12.328125 5.65625 -12.734375 C 6.375 -13.148438 7.242188 -13.359375 8.265625 -13.359375 L 8.265625 -11.109375 L 7.6875 -11.109375 C 5.25 -11.109375 4.03125 -9.785156 4.03125 -7.140625 L 4.03125 0 L 1.84375 0 L 1.84375 -13.125 L 4.03125 -13.125 Z M 4.03125 -11 "/></g></g></g><g fill="#000000" fill-opacity="1"><g transform="translate(176.053019, 135.060842)"><g><path d="M 13.828125 -7.0625 C 13.828125 -6.644531 13.800781 -6.207031 13.75 -5.75 L 3.25 -5.75 C 3.332031 -4.457031 3.773438 -3.445312 4.578125 -2.71875 C 5.390625 -1.988281 6.367188 -1.625 7.515625 -1.625 C 8.460938 -1.625 9.25 -1.84375 9.875 -2.28125 C 10.507812 -2.726562 10.953125 -3.316406 11.203125 -4.046875 L 13.5625 -4.046875 C 13.207031 -2.785156 12.503906 -1.757812 11.453125 -0.96875 C 10.398438 -0.175781 9.085938 0.21875 7.515625 0.21875 C 6.273438 0.21875 5.160156 -0.0625 4.171875 -0.625 C 3.191406 -1.1875 2.421875 -1.976562 1.859375 -3 C 1.304688 -4.03125 1.03125 -5.226562 1.03125 -6.59375 C 1.03125 -7.945312 1.300781 -9.132812 1.84375 -10.15625 C 2.382812 -11.175781 3.144531 -11.960938 4.125 -12.515625 C 5.113281 -13.066406 6.242188 -13.34375 7.515625 -13.34375 C 8.765625 -13.34375 9.867188 -13.070312 10.828125 -12.53125 C 11.785156 -11.988281 12.523438 -11.238281 13.046875 -10.28125 C 13.566406 -9.332031 13.828125 -8.257812 13.828125 -7.0625 Z M 11.5625 -7.515625 C 11.5625 -8.347656 11.378906 -9.0625 11.015625 -9.65625 C 10.648438 -10.257812 10.148438 -10.71875 9.515625 -11.03125 C 8.890625 -11.34375 8.191406 -11.5 7.421875 -11.5 C 6.316406 -11.5 5.378906 -11.144531 4.609375 -10.4375 C 3.835938 -9.738281 3.394531 -8.765625 3.28125 -7.515625 Z M 11.5625 -7.515625 "/></g></g></g><g fill="#000000" fill-opacity="1"><g transform="translate(46.239032, 335.223169)"><g><path d="M 4.03125 -14.921875 L 4.03125 -9.34375 L 10.109375 -9.34375 L 10.109375 -7.546875 L 4.03125 -7.546875 L 4.03125 -1.796875 L 10.828125 -1.796875 L 10.828125 0 L 1.84375 0 L 1.84375 -16.71875 L 10.828125 -16.71875 L 10.828125 -14.921875 Z M 4.03125 -14.921875 "/></g></g></g><g fill="#000000" fill-opacity="1"><g transform="translate(57.305045, 335.223169)"><g><path d="M 6.734375 -2.015625 L 10.796875 -13.125 L 13.125 -13.125 L 7.96875 0 L 5.4375 0 L 0.28125 -13.125 L 2.640625 -13.125 Z M 6.734375 -2.015625 "/></g></g></g><g fill="#000000" fill-opacity="1"><g transform="translate(69.520812, 335.223169)"><g><path d="M 1.03125 -6.609375 C 1.03125 -7.953125 1.300781 -9.128906 1.84375 -10.140625 C 2.382812 -11.160156 3.128906 -11.945312 4.078125 -12.5 C 5.035156 -13.0625 6.097656 -13.34375 7.265625 -13.34375 C 8.410156 -13.34375 9.40625 -13.09375 10.25 -12.59375 C 11.09375 -12.101562 11.722656 -11.484375 12.140625 -10.734375 L 12.140625 -13.125 L 14.34375 -13.125 L 14.34375 0 L 12.140625 0 L 12.140625 -2.4375 C 11.710938 -1.675781 11.070312 -1.039062 10.21875 -0.53125 C 9.363281 -0.03125 8.367188 0.21875 7.234375 0.21875 C 6.066406 0.21875 5.007812 -0.0664062 4.0625 -0.640625 C 3.125 -1.222656 2.382812 -2.03125 1.84375 -3.0625 C 1.300781 -4.101562 1.03125 -5.285156 1.03125 -6.609375 Z M 12.140625 -6.59375 C 12.140625 -7.582031 11.941406 -8.441406 11.546875 -9.171875 C 11.148438 -9.910156 10.609375 -10.472656 9.921875 -10.859375 C 9.242188 -11.253906 8.5 -11.453125 7.6875 -11.453125 C 6.875 -11.453125 6.128906 -11.257812 5.453125 -10.875 C 4.785156 -10.488281 4.25 -9.925781 3.84375 -9.1875 C 3.445312 -8.457031 3.25 -7.597656 3.25 -6.609375 C 3.25 -5.609375 3.445312 -4.734375 3.84375 -3.984375 C 4.25 -3.242188 4.785156 -2.675781 5.453125 -2.28125 C 6.128906 -1.894531 6.875 -1.703125 7.6875 -1.703125 C 8.5 -1.703125 9.242188 -1.894531 9.921875 -2.28125 C 10.609375 -2.675781 11.148438 -3.242188 11.546875 -3.984375 C 11.941406 -4.734375 12.140625 -5.601562 12.140625 -6.59375 Z M 12.140625 -6.59375 "/></g></g></g><g fill="#000000" fill-opacity="1"><g transform="translate(84.491194, 335.223169)"><g><path d="M 4.03125 -17.71875 L 4.03125 0 L 1.84375 0 L 1.84375 -17.71875 Z M 4.03125 -17.71875 "/></g></g></g><g fill="#000000" fill-opacity="1"><g transform="translate(89.161699, 335.223169)"><g><path d="M 13.484375 -13.125 L 13.484375 0 L 11.3125 0 L 11.3125 -1.9375 C 10.894531 -1.269531 10.3125 -0.75 9.5625 -0.375 C 8.820312 0 8.003906 0.1875 7.109375 0.1875 C 6.085938 0.1875 5.171875 -0.0195312 4.359375 -0.4375 C 3.546875 -0.863281 2.898438 -1.5 2.421875 -2.34375 C 1.953125 -3.1875 1.71875 -4.21875 1.71875 -5.4375 L 1.71875 -13.125 L 3.875 -13.125 L 3.875 -5.71875 C 3.875 -4.425781 4.203125 -3.429688 4.859375 -2.734375 C 5.515625 -2.046875 6.410156 -1.703125 7.546875 -1.703125 C 8.710938 -1.703125 9.628906 -2.0625 10.296875 -2.78125 C 10.972656 -3.5 11.3125 -4.546875 11.3125 -5.921875 L 11.3125 -13.125 Z M 13.484375 -13.125 "/></g></g></g><g fill="#000000" fill-opacity="1"><g transform="translate(103.269768, 335.223169)"><g><path d="M 1.03125 -6.609375 C 1.03125 -7.953125 1.300781 -9.128906 1.84375 -10.140625 C 2.382812 -11.160156 3.128906 -11.945312 4.078125 -12.5 C 5.035156 -13.0625 6.097656 -13.34375 7.265625 -13.34375 C 8.410156 -13.34375 9.40625 -13.09375 10.25 -12.59375 C 11.09375 -12.101562 11.722656 -11.484375 12.140625 -10.734375 L 12.140625 -13.125 L 14.34375 -13.125 L 14.34375 0 L 12.140625 0 L 12.140625 -2.4375 C 11.710938 -1.675781 11.070312 -1.039062 10.21875 -0.53125 C 9.363281 -0.03125 8.367188 0.21875 7.234375 0.21875 C 6.066406 0.21875 5.007812 -0.0664062 4.0625 -0.640625 C 3.125 -1.222656 2.382812 -2.03125 1.84375 -3.0625 C 1.300781 -4.101562 1.03125 -5.285156 1.03125 -6.609375 Z M 12.140625 -6.59375 C 12.140625 -7.582031 11.941406 -8.441406 11.546875 -9.171875 C 11.148438 -9.910156 10.609375 -10.472656 9.921875 -10.859375 C 9.242188 -11.253906 8.5 -11.453125 7.6875 -11.453125 C 6.875 -11.453125 6.128906 -11.257812 5.453125 -10.875 C 4.785156 -10.488281 4.25 -9.925781 3.84375 -9.1875 C 3.445312 -8.457031 3.25 -7.597656 3.25 -6.609375 C 3.25 -5.609375 3.445312 -4.734375 3.84375 -3.984375 C 4.25 -3.242188 4.785156 -2.675781 5.453125 -2.28125 C 6.128906 -1.894531 6.875 -1.703125 7.6875 -1.703125 C 8.5 -1.703125 9.242188 -1.894531 9.921875 -2.28125 C 10.609375 -2.675781 11.148438 -3.242188 11.546875 -3.984375 C 11.941406 -4.734375 12.140625 -5.601562 12.140625 -6.59375 Z M 12.140625 -6.59375 "/></g></g></g><g fill="#000000" fill-opacity="1"><g transform="translate(118.24015, 335.223169)"><g><path d="M 4.5 -11.328125 L 4.5 -3.59375 C 4.5 -2.957031 4.632812 -2.503906 4.90625 -2.234375 C 5.175781 -1.972656 5.648438 -1.84375 6.328125 -1.84375 L 7.921875 -1.84375 L 7.921875 0 L 5.96875 0 C 4.75 0 3.835938 -0.273438 3.234375 -0.828125 C 2.628906 -1.390625 2.328125 -2.3125 2.328125 -3.59375 L 2.328125 -11.328125 L 0.625 -11.328125 L 0.625 -13.125 L 2.328125 -13.125 L 2.328125 -16.4375 L 4.5 -16.4375 L 4.5 -13.125 L 7.921875 -13.125 L 7.921875 -11.328125 Z M 4.5 -11.328125 "/></g></g></g><g fill="#000000" fill-opacity="1"><g transform="translate(125.73714, 335.223169)"><g><path d="M 13.828125 -7.0625 C 13.828125 -6.644531 13.800781 -6.207031 13.75 -5.75 L 3.25 -5.75 C 3.332031 -4.457031 3.773438 -3.445312 4.578125 -2.71875 C 5.390625 -1.988281 6.367188 -1.625 7.515625 -1.625 C 8.460938 -1.625 9.25 -1.84375 9.875 -2.28125 C 10.507812 -2.726562 10.953125 -3.316406 11.203125 -4.046875 L 13.5625 -4.046875 C 13.207031 -2.785156 12.503906 -1.757812 11.453125 -0.96875 C 10.398438 -0.175781 9.085938 0.21875 7.515625 0.21875 C 6.273438 0.21875 5.160156 -0.0625 4.171875 -0.625 C 3.191406 -1.1875 2.421875 -1.976562 1.859375 -3 C 1.304688 -4.03125 1.03125 -5.226562 1.03125 -6.59375 C 1.03125 -7.945312 1.300781 -9.132812 1.84375 -10.15625 C 2.382812 -11.175781 3.144531 -11.960938 4.125 -12.515625 C 5.113281 -13.066406 6.242188 -13.34375 7.515625 -13.34375 C 8.765625 -13.34375 9.867188 -13.070312 10.828125 -12.53125 C 11.785156 -11.988281 12.523438 -11.238281 13.046875 -10.28125 C 13.566406 -9.332031 13.828125 -8.257812 13.828125 -7.0625 Z M 11.5625 -7.515625 C 11.5625 -8.347656 11.378906 -9.0625 11.015625 -9.65625 C 10.648438 -10.257812 10.148438 -10.71875 9.515625 -11.03125 C 8.890625 -11.34375 8.191406 -11.5 7.421875 -11.5 C 6.316406 -11.5 5.378906 -11.144531 4.609375 -10.4375 C 3.835938 -9.738281 3.394531 -8.765625 3.28125 -7.515625 Z M 11.5625 -7.515625 "/></g></g></g><g fill="#000000" fill-opacity="1"><g transform="translate(426.855366, 457.650793)"><g><path d="M 5.828125 -17.546875 L 5.828125 0 L 1.546875 0 L 1.546875 -17.546875 Z M 5.828125 -17.546875 "/></g></g></g><g fill="#000000" fill-opacity="1"><g transform="translate(247.979344, 437.56517)"><g><path d="M 10.5 0 L 6.84375 -6.625 L 5.828125 -6.625 L 5.828125 0 L 1.546875 0 L 1.546875 -17.546875 L 8.71875 -17.546875 C 10.101562 -17.546875 11.28125 -17.300781 12.25 -16.8125 C 13.226562 -16.332031 13.957031 -15.671875 14.4375 -14.828125 C 14.925781 -13.992188 15.171875 -13.0625 15.171875 -12.03125 C 15.171875 -10.863281 14.84375 -9.820312 14.1875 -8.90625 C 13.53125 -7.988281 12.5625 -7.335938 11.28125 -6.953125 L 15.328125 0 Z M 5.828125 -9.65625 L 8.46875 -9.65625 C 9.257812 -9.65625 9.847656 -9.84375 10.234375 -10.21875 C 10.628906 -10.601562 10.828125 -11.144531 10.828125 -11.84375 C 10.828125 -12.507812 10.628906 -13.035156 10.234375 -13.421875 C 9.847656 -13.804688 9.257812 -14 8.46875 -14 L 5.828125 -14 Z M 5.828125 -9.65625 "/></g></g></g><g fill="#000000" fill-opacity="1"><g transform="translate(203.639142, 291.522809)"><g><path d="M 5.828125 -14.125 L 5.828125 -10.578125 L 11.546875 -10.578125 L 11.546875 -7.28125 L 5.828125 -7.28125 L 5.828125 -3.421875 L 12.296875 -3.421875 L 12.296875 0 L 1.546875 0 L 1.546875 -17.546875 L 12.296875 -17.546875 L 12.296875 -14.125 Z M 5.828125 -14.125 "/></g></g></g><g fill="#000000" fill-opacity="1"><g transform="translate(478.751764, 137.567335)"><g><path d="M 7.140625 0.171875 C 6.035156 0.171875 5.046875 -0.0195312 4.171875 -0.40625 C 3.304688 -0.800781 2.625 -1.347656 2.125 -2.046875 C 1.632812 -2.742188 1.378906 -3.546875 1.359375 -4.453125 L 3.6875 -4.453125 C 3.769531 -3.671875 4.09375 -3.007812 4.65625 -2.46875 C 5.226562 -1.9375 6.054688 -1.671875 7.140625 -1.671875 C 8.171875 -1.671875 8.984375 -1.929688 9.578125 -2.453125 C 10.179688 -2.972656 10.484375 -3.640625 10.484375 -4.453125 C 10.484375 -5.085938 10.304688 -5.601562 9.953125 -6 C 9.609375 -6.40625 9.171875 -6.710938 8.640625 -6.921875 C 8.117188 -7.128906 7.410156 -7.351562 6.515625 -7.59375 C 5.410156 -7.882812 4.523438 -8.171875 3.859375 -8.453125 C 3.203125 -8.742188 2.640625 -9.195312 2.171875 -9.8125 C 1.703125 -10.425781 1.46875 -11.25 1.46875 -12.28125 C 1.46875 -13.195312 1.695312 -14.003906 2.15625 -14.703125 C 2.613281 -15.410156 3.257812 -15.953125 4.09375 -16.328125 C 4.9375 -16.710938 5.90625 -16.90625 7 -16.90625 C 8.5625 -16.90625 9.835938 -16.515625 10.828125 -15.734375 C 11.828125 -14.953125 12.394531 -13.914062 12.53125 -12.625 L 10.125 -12.625 C 10.050781 -13.257812 9.71875 -13.820312 9.125 -14.3125 C 8.53125 -14.800781 7.75 -15.046875 6.78125 -15.046875 C 5.863281 -15.046875 5.117188 -14.804688 4.546875 -14.328125 C 3.972656 -13.859375 3.6875 -13.203125 3.6875 -12.359375 C 3.6875 -11.753906 3.859375 -11.257812 4.203125 -10.875 C 4.546875 -10.488281 4.96875 -10.195312 5.46875 -10 C 5.976562 -9.800781 6.6875 -9.570312 7.59375 -9.3125 C 8.695312 -9.007812 9.582031 -8.707031 10.25 -8.40625 C 10.925781 -8.113281 11.5 -7.660156 11.96875 -7.046875 C 12.445312 -6.429688 12.6875 -5.597656 12.6875 -4.546875 C 12.6875 -3.734375 12.472656 -2.96875 12.046875 -2.25 C 11.617188 -1.53125 10.976562 -0.945312 10.125 -0.5 C 9.28125 -0.0507812 8.285156 0.171875 7.140625 0.171875 Z M 7.140625 0.171875 "/></g></g></g><g fill="#000000" fill-opacity="1"><g transform="translate(491.590318, 137.567335)"><g><path d="M 4.5 -11.328125 L 4.5 -3.59375 C 4.5 -2.957031 4.632812 -2.503906 4.90625 -2.234375 C 5.175781 -1.972656 5.648438 -1.84375 6.328125 -1.84375 L 7.921875 -1.84375 L 7.921875 0 L 5.96875 0 C 4.75 0 3.835938 -0.273438 3.234375 -0.828125 C 2.628906 -1.390625 2.328125 -2.3125 2.328125 -3.59375 L 2.328125 -11.328125 L 0.625 -11.328125 L 0.625 -13.125 L 2.328125 -13.125 L 2.328125 -16.4375 L 4.5 -16.4375 L 4.5 -13.125 L 7.921875 -13.125 L 7.921875 -11.328125 Z M 4.5 -11.328125 "/></g></g></g><g fill="#000000" fill-opacity="1"><g transform="translate(499.087308, 137.567335)"><g><path d="M 4.03125 -11 C 4.40625 -11.75 4.945312 -12.328125 5.65625 -12.734375 C 6.375 -13.148438 7.242188 -13.359375 8.265625 -13.359375 L 8.265625 -11.109375 L 7.6875 -11.109375 C 5.25 -11.109375 4.03125 -9.785156 4.03125 -7.140625 L 4.03125 0 L 1.84375 0 L 1.84375 -13.125 L 4.03125 -13.125 Z M 4.03125 -11 "/></g></g></g><g fill="#000000" fill-opacity="1"><g transform="translate(506.79987, 137.567335)"><g><path d="M 1.03125 -6.609375 C 1.03125 -7.953125 1.300781 -9.128906 1.84375 -10.140625 C 2.382812 -11.160156 3.128906 -11.945312 4.078125 -12.5 C 5.035156 -13.0625 6.097656 -13.34375 7.265625 -13.34375 C 8.410156 -13.34375 9.40625 -13.09375 10.25 -12.59375 C 11.09375 -12.101562 11.722656 -11.484375 12.140625 -10.734375 L 12.140625 -13.125 L 14.34375 -13.125 L 14.34375 0 L 12.140625 0 L 12.140625 -2.4375 C 11.710938 -1.675781 11.070312 -1.039062 10.21875 -0.53125 C 9.363281 -0.03125 8.367188 0.21875 7.234375 0.21875 C 6.066406 0.21875 5.007812 -0.0664062 4.0625 -0.640625 C 3.125 -1.222656 2.382812 -2.03125 1.84375 -3.0625 C 1.300781 -4.101562 1.03125 -5.285156 1.03125 -6.609375 Z M 12.140625 -6.59375 C 12.140625 -7.582031 11.941406 -8.441406 11.546875 -9.171875 C 11.148438 -9.910156 10.609375 -10.472656 9.921875 -10.859375 C 9.242188 -11.253906 8.5 -11.453125 7.6875 -11.453125 C 6.875 -11.453125 6.128906 -11.257812 5.453125 -10.875 C 4.785156 -10.488281 4.25 -9.925781 3.84375 -9.1875 C 3.445312 -8.457031 3.25 -7.597656 3.25 -6.609375 C 3.25 -5.609375 3.445312 -4.734375 3.84375 -3.984375 C 4.25 -3.242188 4.785156 -2.675781 5.453125 -2.28125 C 6.128906 -1.894531 6.875 -1.703125 7.6875 -1.703125 C 8.5 -1.703125 9.242188 -1.894531 9.921875 -2.28125 C 10.609375 -2.675781 11.148438 -3.242188 11.546875 -3.984375 C 11.941406 -4.734375 12.140625 -5.601562 12.140625 -6.59375 Z M 12.140625 -6.59375 "/></g></g></g><g fill="#000000" fill-opacity="1"><g transform="translate(521.770252, 137.567335)"><g><path d="M 4.5 -11.328125 L 4.5 -3.59375 C 4.5 -2.957031 4.632812 -2.503906 4.90625 -2.234375 C 5.175781 -1.972656 5.648438 -1.84375 6.328125 -1.84375 L 7.921875 -1.84375 L 7.921875 0 L 5.96875 0 C 4.75 0 3.835938 -0.273438 3.234375 -0.828125 C 2.628906 -1.390625 2.328125 -2.3125 2.328125 -3.59375 L 2.328125 -11.328125 L 0.625 -11.328125 L 0.625 -13.125 L 2.328125 -13.125 L 2.328125 -16.4375 L 4.5 -16.4375 L 4.5 -13.125 L 7.921875 -13.125 L 7.921875 -11.328125 Z M 4.5 -11.328125 "/></g></g></g><g fill="#000000" fill-opacity="1"><g transform="translate(529.267242, 137.567335)"><g><path d="M 13.828125 -7.0625 C 13.828125 -6.644531 13.800781 -6.207031 13.75 -5.75 L 3.25 -5.75 C 3.332031 -4.457031 3.773438 -3.445312 4.578125 -2.71875 C 5.390625 -1.988281 6.367188 -1.625 7.515625 -1.625 C 8.460938 -1.625 9.25 -1.84375 9.875 -2.28125 C 10.507812 -2.726562 10.953125 -3.316406 11.203125 -4.046875 L 13.5625 -4.046875 C 13.207031 -2.785156 12.503906 -1.757812 11.453125 -0.96875 C 10.398438 -0.175781 9.085938 0.21875 7.515625 0.21875 C 6.273438 0.21875 5.160156 -0.0625 4.171875 -0.625 C 3.191406 -1.1875 2.421875 -1.976562 1.859375 -3 C 1.304688 -4.03125 1.03125 -5.226562 1.03125 -6.59375 C 1.03125 -7.945312 1.300781 -9.132812 1.84375 -10.15625 C 2.382812 -11.175781 3.144531 -11.960938 4.125 -12.515625 C 5.113281 -13.066406 6.242188 -13.34375 7.515625 -13.34375 C 8.765625 -13.34375 9.867188 -13.070312 10.828125 -12.53125 C 11.785156 -11.988281 12.523438 -11.238281 13.046875 -10.28125 C 13.566406 -9.332031 13.828125 -8.257812 13.828125 -7.0625 Z M 11.5625 -7.515625 C 11.5625 -8.347656 11.378906 -9.0625 11.015625 -9.65625 C 10.648438 -10.257812 10.148438 -10.71875 9.515625 -11.03125 C 8.890625 -11.34375 8.191406 -11.5 7.421875 -11.5 C 6.316406 -11.5 5.378906 -11.144531 4.609375 -10.4375 C 3.835938 -9.738281 3.394531 -8.765625 3.28125 -7.515625 Z M 11.5625 -7.515625 "/></g></g></g><g fill="#000000" fill-opacity="1"><g transform="translate(542.896251, 137.567335)"><g><path d="M 7.265625 -13.34375 C 8.390625 -13.34375 9.378906 -13.09375 10.234375 -12.59375 C 11.085938 -12.101562 11.722656 -11.484375 12.140625 -10.734375 L 12.140625 -13.125 L 14.34375 -13.125 L 14.34375 0.28125 C 14.34375 1.476562 14.085938 2.546875 13.578125 3.484375 C 13.066406 4.421875 12.335938 5.148438 11.390625 5.671875 C 10.441406 6.203125 9.335938 6.46875 8.078125 6.46875 C 6.347656 6.46875 4.90625 6.0625 3.75 5.25 C 2.601562 4.4375 1.925781 3.328125 1.71875 1.921875 L 3.875 1.921875 C 4.113281 2.710938 4.609375 3.351562 5.359375 3.84375 C 6.109375 4.332031 7.015625 4.578125 8.078125 4.578125 C 9.273438 4.578125 10.25 4.203125 11 3.453125 C 11.757812 2.703125 12.140625 1.644531 12.140625 0.28125 L 12.140625 -2.46875 C 11.710938 -1.695312 11.070312 -1.054688 10.21875 -0.546875 C 9.375 -0.0351562 8.390625 0.21875 7.265625 0.21875 C 6.097656 0.21875 5.035156 -0.0664062 4.078125 -0.640625 C 3.128906 -1.222656 2.382812 -2.03125 1.84375 -3.0625 C 1.300781 -4.101562 1.03125 -5.285156 1.03125 -6.609375 C 1.03125 -7.953125 1.300781 -9.128906 1.84375 -10.140625 C 2.382812 -11.160156 3.128906 -11.945312 4.078125 -12.5 C 5.035156 -13.0625 6.097656 -13.34375 7.265625 -13.34375 Z M 12.140625 -6.59375 C 12.140625 -7.582031 11.941406 -8.441406 11.546875 -9.171875 C 11.148438 -9.910156 10.609375 -10.472656 9.921875 -10.859375 C 9.242188 -11.253906 8.5 -11.453125 7.6875 -11.453125 C 6.875 -11.453125 6.128906 -11.257812 5.453125 -10.875 C 4.785156 -10.488281 4.25 -9.925781 3.84375 -9.1875 C 3.445312 -8.457031 3.25 -7.597656 3.25 -6.609375 C 3.25 -5.609375 3.445312 -4.734375 3.84375 -3.984375 C 4.25 -3.242188 4.785156 -2.675781 5.453125 -2.28125 C 6.128906 -1.894531 6.875 -1.703125 7.6875 -1.703125 C 8.5 -1.703125 9.242188 -1.894531 9.921875 -2.28125 C 10.609375 -2.675781 11.148438 -3.242188 11.546875 -3.984375 C 11.941406 -4.734375 12.140625 -5.601562 12.140625 -6.59375 Z M 12.140625 -6.59375 "/></g></g></g><g fill="#000000" fill-opacity="1"><g transform="translate(557.866632, 137.567335)"><g><path d="M 2.96875 -15.265625 C 2.550781 -15.265625 2.195312 -15.40625 1.90625 -15.6875 C 1.625 -15.976562 1.484375 -16.332031 1.484375 -16.75 C 1.484375 -17.15625 1.625 -17.503906 1.90625 -17.796875 C 2.195312 -18.085938 2.550781 -18.234375 2.96875 -18.234375 C 3.363281 -18.234375 3.703125 -18.085938 3.984375 -17.796875 C 4.265625 -17.503906 4.40625 -17.15625 4.40625 -16.75 C 4.40625 -16.332031 4.265625 -15.976562 3.984375 -15.6875 C 3.703125 -15.40625 3.363281 -15.265625 2.96875 -15.265625 Z M 4.03125 -13.125 L 4.03125 0 L 1.84375 0 L 1.84375 -13.125 Z M 4.03125 -13.125 "/></g></g></g><g fill="#000000" fill-opacity="1"><g transform="translate(562.537138, 137.567335)"><g><path d="M 3.46875 -1.796875 L 9.921875 -1.796875 L 9.921875 0 L 0.984375 0 L 0.984375 -1.796875 L 7.359375 -11.359375 L 1.03125 -11.359375 L 1.03125 -13.125 L 9.875 -13.125 L 9.875 -11.359375 Z M 3.46875 -1.796875 "/></g></g></g><g fill="#000000" fill-opacity="1"><g transform="translate(572.213861, 137.567335)"><g><path d="M 13.828125 -7.0625 C 13.828125 -6.644531 13.800781 -6.207031 13.75 -5.75 L 3.25 -5.75 C 3.332031 -4.457031 3.773438 -3.445312 4.578125 -2.71875 C 5.390625 -1.988281 6.367188 -1.625 7.515625 -1.625 C 8.460938 -1.625 9.25 -1.84375 9.875 -2.28125 C 10.507812 -2.726562 10.953125 -3.316406 11.203125 -4.046875 L 13.5625 -4.046875 C 13.207031 -2.785156 12.503906 -1.757812 11.453125 -0.96875 C 10.398438 -0.175781 9.085938 0.21875 7.515625 0.21875 C 6.273438 0.21875 5.160156 -0.0625 4.171875 -0.625 C 3.191406 -1.1875 2.421875 -1.976562 1.859375 -3 C 1.304688 -4.03125 1.03125 -5.226562 1.03125 -6.59375 C 1.03125 -7.945312 1.300781 -9.132812 1.84375 -10.15625 C 2.382812 -11.175781 3.144531 -11.960938 4.125 -12.515625 C 5.113281 -13.066406 6.242188 -13.34375 7.515625 -13.34375 C 8.765625 -13.34375 9.867188 -13.070312 10.828125 -12.53125 C 11.785156 -11.988281 12.523438 -11.238281 13.046875 -10.28125 C 13.566406 -9.332031 13.828125 -8.257812 13.828125 -7.0625 Z M 11.5625 -7.515625 C 11.5625 -8.347656 11.378906 -9.0625 11.015625 -9.65625 C 10.648438 -10.257812 10.148438 -10.71875 9.515625 -11.03125 C 8.890625 -11.34375 8.191406 -11.5 7.421875 -11.5 C 6.316406 -11.5 5.378906 -11.144531 4.609375 -10.4375 C 3.835938 -9.738281 3.394531 -8.765625 3.28125 -7.515625 Z M 11.5625 -7.515625 "/></g></g></g><g fill="#000000" fill-opacity="1"><g transform="translate(613.380334, 329.874909)"><g><path d="M 13 -11.8125 C 13 -10.414062 12.523438 -9.257812 11.578125 -8.34375 C 10.628906 -7.425781 9.179688 -6.96875 7.234375 -6.96875 L 4.03125 -6.96875 L 4.03125 0 L 1.84375 0 L 1.84375 -16.703125 L 7.234375 -16.703125 C 9.117188 -16.703125 10.550781 -16.242188 11.53125 -15.328125 C 12.507812 -14.421875 13 -13.25 13 -11.8125 Z M 7.234375 -8.765625 C 8.441406 -8.765625 9.332031 -9.023438 9.90625 -9.546875 C 10.488281 -10.078125 10.78125 -10.832031 10.78125 -11.8125 C 10.78125 -13.875 9.597656 -14.90625 7.234375 -14.90625 L 4.03125 -14.90625 L 4.03125 -8.765625 Z M 7.234375 -8.765625 "/></g></g></g><g fill="#000000" fill-opacity="1"><g transform="translate(626.027257, 329.874909)"><g><path d="M 4.03125 -17.71875 L 4.03125 0 L 1.84375 0 L 1.84375 -17.71875 Z M 4.03125 -17.71875 "/></g></g></g><g fill="#000000" fill-opacity="1"><g transform="translate(630.697762, 329.874909)"><g><path d="M 1.03125 -6.609375 C 1.03125 -7.953125 1.300781 -9.128906 1.84375 -10.140625 C 2.382812 -11.160156 3.128906 -11.945312 4.078125 -12.5 C 5.035156 -13.0625 6.097656 -13.34375 7.265625 -13.34375 C 8.410156 -13.34375 9.40625 -13.09375 10.25 -12.59375 C 11.09375 -12.101562 11.722656 -11.484375 12.140625 -10.734375 L 12.140625 -13.125 L 14.34375 -13.125 L 14.34375 0 L 12.140625 0 L 12.140625 -2.4375 C 11.710938 -1.675781 11.070312 -1.039062 10.21875 -0.53125 C 9.363281 -0.03125 8.367188 0.21875 7.234375 0.21875 C 6.066406 0.21875 5.007812 -0.0664062 4.0625 -0.640625 C 3.125 -1.222656 2.382812 -2.03125 1.84375 -3.0625 C 1.300781 -4.101562 1.03125 -5.285156 1.03125 -6.609375 Z M 12.140625 -6.59375 C 12.140625 -7.582031 11.941406 -8.441406 11.546875 -9.171875 C 11.148438 -9.910156 10.609375 -10.472656 9.921875 -10.859375 C 9.242188 -11.253906 8.5 -11.453125 7.6875 -11.453125 C 6.875 -11.453125 6.128906 -11.257812 5.453125 -10.875 C 4.785156 -10.488281 4.25 -9.925781 3.84375 -9.1875 C 3.445312 -8.457031 3.25 -7.597656 3.25 -6.609375 C 3.25 -5.609375 3.445312 -4.734375 3.84375 -3.984375 C 4.25 -3.242188 4.785156 -2.675781 5.453125 -2.28125 C 6.128906 -1.894531 6.875 -1.703125 7.6875 -1.703125 C 8.5 -1.703125 9.242188 -1.894531 9.921875 -2.28125 C 10.609375 -2.675781 11.148438 -3.242188 11.546875 -3.984375 C 11.941406 -4.734375 12.140625 -5.601562 12.140625 -6.59375 Z M 12.140625 -6.59375 "/></g></g></g><g fill="#000000" fill-opacity="1"><g transform="translate(645.668144, 329.874909)"><g><path d="M 8.234375 -13.359375 C 9.835938 -13.359375 11.132812 -12.875 12.125 -11.90625 C 13.113281 -10.945312 13.609375 -9.554688 13.609375 -7.734375 L 13.609375 0 L 11.453125 0 L 11.453125 -7.421875 C 11.453125 -8.734375 11.125 -9.734375 10.46875 -10.421875 C 9.8125 -11.117188 8.914062 -11.46875 7.78125 -11.46875 C 6.632812 -11.46875 5.722656 -11.109375 5.046875 -10.390625 C 4.367188 -9.671875 4.03125 -8.628906 4.03125 -7.265625 L 4.03125 0 L 1.84375 0 L 1.84375 -13.125 L 4.03125 -13.125 L 4.03125 -11.265625 C 4.457031 -11.929688 5.039062 -12.445312 5.78125 -12.8125 C 6.53125 -13.175781 7.347656 -13.359375 8.234375 -13.359375 Z M 8.234375 -13.359375 "/></g></g></g><g fill="#000000" fill-opacity="1"><g transform="translate(533.570306, 443.548418)"><g><path d="M 4.03125 -16.703125 L 4.03125 0 L 1.84375 0 L 1.84375 -16.703125 Z M 4.03125 -16.703125 "/></g></g></g><g fill="#000000" fill-opacity="1"><g transform="translate(538.240812, 443.548418)"><g><path d="M 1.03125 -6.609375 C 1.03125 -7.953125 1.300781 -9.128906 1.84375 -10.140625 C 2.382812 -11.160156 3.128906 -11.945312 4.078125 -12.5 C 5.035156 -13.0625 6.101562 -13.34375 7.28125 -13.34375 C 8.300781 -13.34375 9.25 -13.101562 10.125 -12.625 C 11.007812 -12.15625 11.679688 -11.539062 12.140625 -10.78125 L 12.140625 -17.71875 L 14.34375 -17.71875 L 14.34375 0 L 12.140625 0 L 12.140625 -2.46875 C 11.710938 -1.6875 11.070312 -1.039062 10.21875 -0.53125 C 9.375 -0.03125 8.390625 0.21875 7.265625 0.21875 C 6.097656 0.21875 5.035156 -0.0664062 4.078125 -0.640625 C 3.128906 -1.222656 2.382812 -2.03125 1.84375 -3.0625 C 1.300781 -4.101562 1.03125 -5.285156 1.03125 -6.609375 Z M 12.140625 -6.59375 C 12.140625 -7.582031 11.941406 -8.441406 11.546875 -9.171875 C 11.148438 -9.910156 10.609375 -10.472656 9.921875 -10.859375 C 9.242188 -11.253906 8.5 -11.453125 7.6875 -11.453125 C 6.875 -11.453125 6.128906 -11.257812 5.453125 -10.875 C 4.785156 -10.488281 4.25 -9.925781 3.84375 -9.1875 C 3.445312 -8.457031 3.25 -7.597656 3.25 -6.609375 C 3.25 -5.609375 3.445312 -4.734375 3.84375 -3.984375 C 4.25 -3.242188 4.785156 -2.675781 5.453125 -2.28125 C 6.128906 -1.894531 6.875 -1.703125 7.6875 -1.703125 C 8.5 -1.703125 9.242188 -1.894531 9.921875 -2.28125 C 10.609375 -2.675781 11.148438 -3.242188 11.546875 -3.984375 C 11.941406 -4.734375 12.140625 -5.601562 12.140625 -6.59375 Z M 12.140625 -6.59375 "/></g></g></g><g fill="#000000" fill-opacity="1"><g transform="translate(553.211194, 443.548418)"><g><path d="M 13.828125 -7.0625 C 13.828125 -6.644531 13.800781 -6.207031 13.75 -5.75 L 3.25 -5.75 C 3.332031 -4.457031 3.773438 -3.445312 4.578125 -2.71875 C 5.390625 -1.988281 6.367188 -1.625 7.515625 -1.625 C 8.460938 -1.625 9.25 -1.84375 9.875 -2.28125 C 10.507812 -2.726562 10.953125 -3.316406 11.203125 -4.046875 L 13.5625 -4.046875 C 13.207031 -2.785156 12.503906 -1.757812 11.453125 -0.96875 C 10.398438 -0.175781 9.085938 0.21875 7.515625 0.21875 C 6.273438 0.21875 5.160156 -0.0625 4.171875 -0.625 C 3.191406 -1.1875 2.421875 -1.976562 1.859375 -3 C 1.304688 -4.03125 1.03125 -5.226562 1.03125 -6.59375 C 1.03125 -7.945312 1.300781 -9.132812 1.84375 -10.15625 C 2.382812 -11.175781 3.144531 -11.960938 4.125 -12.515625 C 5.113281 -13.066406 6.242188 -13.34375 7.515625 -13.34375 C 8.765625 -13.34375 9.867188 -13.070312 10.828125 -12.53125 C 11.785156 -11.988281 12.523438 -11.238281 13.046875 -10.28125 C 13.566406 -9.332031 13.828125 -8.257812 13.828125 -7.0625 Z M 11.5625 -7.515625 C 11.5625 -8.347656 11.378906 -9.0625 11.015625 -9.65625 C 10.648438 -10.257812 10.148438 -10.71875 9.515625 -11.03125 C 8.890625 -11.34375 8.191406 -11.5 7.421875 -11.5 C 6.316406 -11.5 5.378906 -11.144531 4.609375 -10.4375 C 3.835938 -9.738281 3.394531 -8.765625 3.28125 -7.515625 Z M 11.5625 -7.515625 "/></g></g></g><g fill="#000000" fill-opacity="1"><g transform="translate(566.840202, 443.548418)"><g><path d="M 8.234375 -13.359375 C 9.835938 -13.359375 11.132812 -12.875 12.125 -11.90625 C 13.113281 -10.945312 13.609375 -9.554688 13.609375 -7.734375 L 13.609375 0 L 11.453125 0 L 11.453125 -7.421875 C 11.453125 -8.734375 11.125 -9.734375 10.46875 -10.421875 C 9.8125 -11.117188 8.914062 -11.46875 7.78125 -11.46875 C 6.632812 -11.46875 5.722656 -11.109375 5.046875 -10.390625 C 4.367188 -9.671875 4.03125 -8.628906 4.03125 -7.265625 L 4.03125 0 L 1.84375 0 L 1.84375 -13.125 L 4.03125 -13.125 L 4.03125 -11.265625 C 4.457031 -11.929688 5.039062 -12.445312 5.78125 -12.8125 C 6.53125 -13.175781 7.347656 -13.359375 8.234375 -13.359375 Z M 8.234375 -13.359375 "/></g></g></g><g fill="#000000" fill-opacity="1"><g transform="translate(580.948272, 443.548418)"><g><path d="M 4.5 -11.328125 L 4.5 -3.59375 C 4.5 -2.957031 4.632812 -2.503906 4.90625 -2.234375 C 5.175781 -1.972656 5.648438 -1.84375 6.328125 -1.84375 L 7.921875 -1.84375 L 7.921875 0 L 5.96875 0 C 4.75 0 3.835938 -0.273438 3.234375 -0.828125 C 2.628906 -1.390625 2.328125 -2.3125 2.328125 -3.59375 L 2.328125 -11.328125 L 0.625 -11.328125 L 0.625 -13.125 L 2.328125 -13.125 L 2.328125 -16.4375 L 4.5 -16.4375 L 4.5 -13.125 L 7.921875 -13.125 L 7.921875 -11.328125 Z M 4.5 -11.328125 "/></g></g></g><g fill="#000000" fill-opacity="1"><g transform="translate(588.445261, 443.548418)"><g><path d="M 2.96875 -15.265625 C 2.550781 -15.265625 2.195312 -15.40625 1.90625 -15.6875 C 1.625 -15.976562 1.484375 -16.332031 1.484375 -16.75 C 1.484375 -17.15625 1.625 -17.503906 1.90625 -17.796875 C 2.195312 -18.085938 2.550781 -18.234375 2.96875 -18.234375 C 3.363281 -18.234375 3.703125 -18.085938 3.984375 -17.796875 C 4.265625 -17.503906 4.40625 -17.15625 4.40625 -16.75 C 4.40625 -16.332031 4.265625 -15.976562 3.984375 -15.6875 C 3.703125 -15.40625 3.363281 -15.265625 2.96875 -15.265625 Z M 4.03125 -13.125 L 4.03125 0 L 1.84375 0 L 1.84375 -13.125 Z M 4.03125 -13.125 "/></g></g></g><g fill="#000000" fill-opacity="1"><g transform="translate(593.115767, 443.548418)"><g><path d="M 7.1875 -11.328125 L 4.4375 -11.328125 L 4.4375 0 L 2.25 0 L 2.25 -11.328125 L 0.546875 -11.328125 L 0.546875 -13.125 L 2.25 -13.125 L 2.25 -14.0625 C 2.25 -15.53125 2.628906 -16.601562 3.390625 -17.28125 C 4.148438 -17.957031 5.367188 -18.296875 7.046875 -18.296875 L 7.046875 -16.484375 C 6.085938 -16.484375 5.410156 -16.296875 5.015625 -15.921875 C 4.628906 -15.546875 4.4375 -14.925781 4.4375 -14.0625 L 4.4375 -13.125 L 7.1875 -13.125 Z M 7.1875 -11.328125 "/></g></g></g><g fill="#000000" fill-opacity="1"><g transform="translate(599.774397, 443.548418)"><g><path d="M 13.15625 -13.125 L 5.25 6.1875 L 3 6.1875 L 5.578125 -0.140625 L 0.28125 -13.125 L 2.703125 -13.125 L 6.828125 -2.484375 L 10.90625 -13.125 Z M 13.15625 -13.125 "/></g></g></g><g fill="#000000" fill-opacity="1"><g transform="translate(612.038068, 443.548418)"><g/></g></g><g fill="#000000" fill-opacity="1"><g transform="translate(617.211599, 443.548418)"><g><path d="M 10.203125 -8.59375 C 10.804688 -8.5 11.359375 -8.253906 11.859375 -7.859375 C 12.367188 -7.460938 12.769531 -6.96875 13.0625 -6.375 C 13.363281 -5.78125 13.515625 -5.148438 13.515625 -4.484375 C 13.515625 -3.628906 13.296875 -2.863281 12.859375 -2.1875 C 12.429688 -1.507812 11.804688 -0.972656 10.984375 -0.578125 C 10.160156 -0.191406 9.191406 0 8.078125 0 L 1.84375 0 L 1.84375 -16.703125 L 7.828125 -16.703125 C 8.960938 -16.703125 9.925781 -16.507812 10.71875 -16.125 C 11.519531 -15.75 12.117188 -15.242188 12.515625 -14.609375 C 12.921875 -13.972656 13.125 -13.253906 13.125 -12.453125 C 13.125 -11.460938 12.851562 -10.644531 12.3125 -10 C 11.78125 -9.351562 11.078125 -8.882812 10.203125 -8.59375 Z M 4.03125 -9.484375 L 7.6875 -9.484375 C 8.707031 -9.484375 9.5 -9.722656 10.0625 -10.203125 C 10.625 -10.679688 10.90625 -11.34375 10.90625 -12.1875 C 10.90625 -13.039062 10.625 -13.707031 10.0625 -14.1875 C 9.5 -14.664062 8.691406 -14.90625 7.640625 -14.90625 L 4.03125 -14.90625 Z M 7.875 -1.796875 C 8.96875 -1.796875 9.816406 -2.050781 10.421875 -2.5625 C 11.023438 -3.070312 11.328125 -3.78125 11.328125 -4.6875 C 11.328125 -5.613281 11.003906 -6.34375 10.359375 -6.875 C 9.722656 -7.414062 8.875 -7.6875 7.8125 -7.6875 L 4.03125 -7.6875 L 4.03125 -1.796875 Z M 7.875 -1.796875 "/></g></g></g><g fill="#000000" fill-opacity="1"><g transform="translate(630.672929, 443.548418)"><g><path d="M 1.03125 -6.609375 C 1.03125 -7.953125 1.300781 -9.128906 1.84375 -10.140625 C 2.382812 -11.160156 3.128906 -11.945312 4.078125 -12.5 C 5.035156 -13.0625 6.097656 -13.34375 7.265625 -13.34375 C 8.410156 -13.34375 9.40625 -13.09375 10.25 -12.59375 C 11.09375 -12.101562 11.722656 -11.484375 12.140625 -10.734375 L 12.140625 -13.125 L 14.34375 -13.125 L 14.34375 0 L 12.140625 0 L 12.140625 -2.4375 C 11.710938 -1.675781 11.070312 -1.039062 10.21875 -0.53125 C 9.363281 -0.03125 8.367188 0.21875 7.234375 0.21875 C 6.066406 0.21875 5.007812 -0.0664062 4.0625 -0.640625 C 3.125 -1.222656 2.382812 -2.03125 1.84375 -3.0625 C 1.300781 -4.101562 1.03125 -5.285156 1.03125 -6.609375 Z M 12.140625 -6.59375 C 12.140625 -7.582031 11.941406 -8.441406 11.546875 -9.171875 C 11.148438 -9.910156 10.609375 -10.472656 9.921875 -10.859375 C 9.242188 -11.253906 8.5 -11.453125 7.6875 -11.453125 C 6.875 -11.453125 6.128906 -11.257812 5.453125 -10.875 C 4.785156 -10.488281 4.25 -9.925781 3.84375 -9.1875 C 3.445312 -8.457031 3.25 -7.597656 3.25 -6.609375 C 3.25 -5.609375 3.445312 -4.734375 3.84375 -3.984375 C 4.25 -3.242188 4.785156 -2.675781 5.453125 -2.28125 C 6.128906 -1.894531 6.875 -1.703125 7.6875 -1.703125 C 8.5 -1.703125 9.242188 -1.894531 9.921875 -2.28125 C 10.609375 -2.675781 11.148438 -3.242188 11.546875 -3.984375 C 11.941406 -4.734375 12.140625 -5.601562 12.140625 -6.59375 Z M 12.140625 -6.59375 "/></g></g></g><g fill="#000000" fill-opacity="1"><g transform="translate(645.643311, 443.548418)"><g><path d="M 4.03125 -11 C 4.40625 -11.75 4.945312 -12.328125 5.65625 -12.734375 C 6.375 -13.148438 7.242188 -13.359375 8.265625 -13.359375 L 8.265625 -11.109375 L 7.6875 -11.109375 C 5.25 -11.109375 4.03125 -9.785156 4.03125 -7.140625 L 4.03125 0 L 1.84375 0 L 1.84375 -13.125 L 4.03125 -13.125 Z M 4.03125 -11 "/></g></g></g><g fill="#000000" fill-opacity="1"><g transform="translate(653.355873, 443.548418)"><g><path d="M 4.03125 -11 C 4.40625 -11.75 4.945312 -12.328125 5.65625 -12.734375 C 6.375 -13.148438 7.242188 -13.359375 8.265625 -13.359375 L 8.265625 -11.109375 L 7.6875 -11.109375 C 5.25 -11.109375 4.03125 -9.785156 4.03125 -7.140625 L 4.03125 0 L 1.84375 0 L 1.84375 -13.125 L 4.03125 -13.125 Z M 4.03125 -11 "/></g></g></g><g fill="#000000" fill-opacity="1"><g transform="translate(661.068435, 443.548418)"><g><path d="M 2.96875 -15.265625 C 2.550781 -15.265625 2.195312 -15.40625 1.90625 -15.6875 C 1.625 -15.976562 1.484375 -16.332031 1.484375 -16.75 C 1.484375 -17.15625 1.625 -17.503906 1.90625 -17.796875 C 2.195312 -18.085938 2.550781 -18.234375 2.96875 -18.234375 C 3.363281 -18.234375 3.703125 -18.085938 3.984375 -17.796875 C 4.265625 -17.503906 4.40625 -17.15625 4.40625 -16.75 C 4.40625 -16.332031 4.265625 -15.976562 3.984375 -15.6875 C 3.703125 -15.40625 3.363281 -15.265625 2.96875 -15.265625 Z M 4.03125 -13.125 L 4.03125 0 L 1.84375 0 L 1.84375 -13.125 Z M 4.03125 -13.125 "/></g></g></g><g fill="#000000" fill-opacity="1"><g transform="translate(665.73894, 443.548418)"><g><path d="M 13.828125 -7.0625 C 13.828125 -6.644531 13.800781 -6.207031 13.75 -5.75 L 3.25 -5.75 C 3.332031 -4.457031 3.773438 -3.445312 4.578125 -2.71875 C 5.390625 -1.988281 6.367188 -1.625 7.515625 -1.625 C 8.460938 -1.625 9.25 -1.84375 9.875 -2.28125 C 10.507812 -2.726562 10.953125 -3.316406 11.203125 -4.046875 L 13.5625 -4.046875 C 13.207031 -2.785156 12.503906 -1.757812 11.453125 -0.96875 C 10.398438 -0.175781 9.085938 0.21875 7.515625 0.21875 C 6.273438 0.21875 5.160156 -0.0625 4.171875 -0.625 C 3.191406 -1.1875 2.421875 -1.976562 1.859375 -3 C 1.304688 -4.03125 1.03125 -5.226562 1.03125 -6.59375 C 1.03125 -7.945312 1.300781 -9.132812 1.84375 -10.15625 C 2.382812 -11.175781 3.144531 -11.960938 4.125 -12.515625 C 5.113281 -13.066406 6.242188 -13.34375 7.515625 -13.34375 C 8.765625 -13.34375 9.867188 -13.070312 10.828125 -12.53125 C 11.785156 -11.988281 12.523438 -11.238281 13.046875 -10.28125 C 13.566406 -9.332031 13.828125 -8.257812 13.828125 -7.0625 Z M 11.5625 -7.515625 C 11.5625 -8.347656 11.378906 -9.0625 11.015625 -9.65625 C 10.648438 -10.257812 10.148438 -10.71875 9.515625 -11.03125 C 8.890625 -11.34375 8.191406 -11.5 7.421875 -11.5 C 6.316406 -11.5 5.378906 -11.144531 4.609375 -10.4375 C 3.835938 -9.738281 3.394531 -8.765625 3.28125 -7.515625 Z M 11.5625 -7.515625 "/></g></g></g><g fill="#000000" fill-opacity="1"><g transform="translate(679.367949, 443.548418)"><g><path d="M 4.03125 -11 C 4.40625 -11.75 4.945312 -12.328125 5.65625 -12.734375 C 6.375 -13.148438 7.242188 -13.359375 8.265625 -13.359375 L 8.265625 -11.109375 L 7.6875 -11.109375 C 5.25 -11.109375 4.03125 -9.785156 4.03125 -7.140625 L 4.03125 0 L 1.84375 0 L 1.84375 -13.125 L 4.03125 -13.125 Z M 4.03125 -11 "/></g></g></g><g fill="#000000" fill-opacity="1"><g transform="translate(687.080511, 443.548418)"><g><path d="M 6.484375 0.21875 C 5.484375 0.21875 4.582031 0.046875 3.78125 -0.296875 C 2.988281 -0.640625 2.359375 -1.117188 1.890625 -1.734375 C 1.429688 -2.347656 1.175781 -3.054688 1.125 -3.859375 L 3.375 -3.859375 C 3.4375 -3.203125 3.742188 -2.664062 4.296875 -2.25 C 4.847656 -1.832031 5.570312 -1.625 6.46875 -1.625 C 7.300781 -1.625 7.957031 -1.804688 8.4375 -2.171875 C 8.914062 -2.546875 9.15625 -3.007812 9.15625 -3.5625 C 9.15625 -4.144531 8.894531 -4.570312 8.375 -4.84375 C 7.863281 -5.125 7.078125 -5.398438 6.015625 -5.671875 C 5.035156 -5.929688 4.238281 -6.191406 3.625 -6.453125 C 3.007812 -6.710938 2.484375 -7.101562 2.046875 -7.625 C 1.609375 -8.144531 1.390625 -8.828125 1.390625 -9.671875 C 1.390625 -10.347656 1.585938 -10.960938 1.984375 -11.515625 C 2.390625 -12.078125 2.957031 -12.519531 3.6875 -12.84375 C 4.425781 -13.175781 5.265625 -13.34375 6.203125 -13.34375 C 7.660156 -13.34375 8.832031 -12.972656 9.71875 -12.234375 C 10.613281 -11.503906 11.09375 -10.5 11.15625 -9.21875 L 8.984375 -9.21875 C 8.929688 -9.90625 8.65625 -10.457031 8.15625 -10.875 C 7.65625 -11.289062 6.976562 -11.5 6.125 -11.5 C 5.34375 -11.5 4.71875 -11.328125 4.25 -10.984375 C 3.789062 -10.648438 3.5625 -10.210938 3.5625 -9.671875 C 3.5625 -9.242188 3.703125 -8.890625 3.984375 -8.609375 C 4.265625 -8.328125 4.613281 -8.101562 5.03125 -7.9375 C 5.457031 -7.769531 6.046875 -7.582031 6.796875 -7.375 C 7.742188 -7.125 8.507812 -6.875 9.09375 -6.625 C 9.6875 -6.375 10.195312 -6 10.625 -5.5 C 11.050781 -5.007812 11.269531 -4.363281 11.28125 -3.5625 C 11.28125 -2.84375 11.078125 -2.195312 10.671875 -1.625 C 10.273438 -1.050781 9.710938 -0.597656 8.984375 -0.265625 C 8.265625 0.0546875 7.429688 0.21875 6.484375 0.21875 Z M 6.484375 0.21875 "/></g></g></g><g fill="#000000" fill-opacity="1"><g transform="translate(101.160596, 468.800592)"><g><path d="M 10.640625 0 L 6.65625 -6.828125 L 4.03125 -6.828125 L 4.03125 0 L 1.84375 0 L 1.84375 -16.703125 L 7.234375 -16.703125 C 8.492188 -16.703125 9.554688 -16.484375 10.421875 -16.046875 C 11.296875 -15.617188 11.945312 -15.035156 12.375 -14.296875 C 12.8125 -13.566406 13.03125 -12.726562 13.03125 -11.78125 C 13.03125 -10.632812 12.695312 -9.617188 12.03125 -8.734375 C 11.375 -7.859375 10.378906 -7.28125 9.046875 -7 L 13.25 0 Z M 4.03125 -8.578125 L 7.234375 -8.578125 C 8.410156 -8.578125 9.296875 -8.867188 9.890625 -9.453125 C 10.484375 -10.035156 10.78125 -10.8125 10.78125 -11.78125 C 10.78125 -12.769531 10.488281 -13.535156 9.90625 -14.078125 C 9.320312 -14.628906 8.429688 -14.90625 7.234375 -14.90625 L 4.03125 -14.90625 Z M 4.03125 -8.578125 "/></g></g></g><g fill="#000000" fill-opacity="1"><g transform="translate(114.502163, 468.800592)"><g><path d="M 13.828125 -7.0625 C 13.828125 -6.644531 13.800781 -6.207031 13.75 -5.75 L 3.25 -5.75 C 3.332031 -4.457031 3.773438 -3.445312 4.578125 -2.71875 C 5.390625 -1.988281 6.367188 -1.625 7.515625 -1.625 C 8.460938 -1.625 9.25 -1.84375 9.875 -2.28125 C 10.507812 -2.726562 10.953125 -3.316406 11.203125 -4.046875 L 13.5625 -4.046875 C 13.207031 -2.785156 12.503906 -1.757812 11.453125 -0.96875 C 10.398438 -0.175781 9.085938 0.21875 7.515625 0.21875 C 6.273438 0.21875 5.160156 -0.0625 4.171875 -0.625 C 3.191406 -1.1875 2.421875 -1.976562 1.859375 -3 C 1.304688 -4.03125 1.03125 -5.226562 1.03125 -6.59375 C 1.03125 -7.945312 1.300781 -9.132812 1.84375 -10.15625 C 2.382812 -11.175781 3.144531 -11.960938 4.125 -12.515625 C 5.113281 -13.066406 6.242188 -13.34375 7.515625 -13.34375 C 8.765625 -13.34375 9.867188 -13.070312 10.828125 -12.53125 C 11.785156 -11.988281 12.523438 -11.238281 13.046875 -10.28125 C 13.566406 -9.332031 13.828125 -8.257812 13.828125 -7.0625 Z M 11.5625 -7.515625 C 11.5625 -8.347656 11.378906 -9.0625 11.015625 -9.65625 C 10.648438 -10.257812 10.148438 -10.71875 9.515625 -11.03125 C 8.890625 -11.34375 8.191406 -11.5 7.421875 -11.5 C 6.316406 -11.5 5.378906 -11.144531 4.609375 -10.4375 C 3.835938 -9.738281 3.394531 -8.765625 3.28125 -7.515625 Z M 11.5625 -7.515625 "/></g></g></g><g fill="#000000" fill-opacity="1"><g transform="translate(128.131171, 468.800592)"><g><path d="M 7.265625 -13.34375 C 8.390625 -13.34375 9.378906 -13.09375 10.234375 -12.59375 C 11.085938 -12.101562 11.722656 -11.484375 12.140625 -10.734375 L 12.140625 -13.125 L 14.34375 -13.125 L 14.34375 0.28125 C 14.34375 1.476562 14.085938 2.546875 13.578125 3.484375 C 13.066406 4.421875 12.335938 5.148438 11.390625 5.671875 C 10.441406 6.203125 9.335938 6.46875 8.078125 6.46875 C 6.347656 6.46875 4.90625 6.0625 3.75 5.25 C 2.601562 4.4375 1.925781 3.328125 1.71875 1.921875 L 3.875 1.921875 C 4.113281 2.710938 4.609375 3.351562 5.359375 3.84375 C 6.109375 4.332031 7.015625 4.578125 8.078125 4.578125 C 9.273438 4.578125 10.25 4.203125 11 3.453125 C 11.757812 2.703125 12.140625 1.644531 12.140625 0.28125 L 12.140625 -2.46875 C 11.710938 -1.695312 11.070312 -1.054688 10.21875 -0.546875 C 9.375 -0.0351562 8.390625 0.21875 7.265625 0.21875 C 6.097656 0.21875 5.035156 -0.0664062 4.078125 -0.640625 C 3.128906 -1.222656 2.382812 -2.03125 1.84375 -3.0625 C 1.300781 -4.101562 1.03125 -5.285156 1.03125 -6.609375 C 1.03125 -7.953125 1.300781 -9.128906 1.84375 -10.140625 C 2.382812 -11.160156 3.128906 -11.945312 4.078125 -12.5 C 5.035156 -13.0625 6.097656 -13.34375 7.265625 -13.34375 Z M 12.140625 -6.59375 C 12.140625 -7.582031 11.941406 -8.441406 11.546875 -9.171875 C 11.148438 -9.910156 10.609375 -10.472656 9.921875 -10.859375 C 9.242188 -11.253906 8.5 -11.453125 7.6875 -11.453125 C 6.875 -11.453125 6.128906 -11.257812 5.453125 -10.875 C 4.785156 -10.488281 4.25 -9.925781 3.84375 -9.1875 C 3.445312 -8.457031 3.25 -7.597656 3.25 -6.609375 C 3.25 -5.609375 3.445312 -4.734375 3.84375 -3.984375 C 4.25 -3.242188 4.785156 -2.675781 5.453125 -2.28125 C 6.128906 -1.894531 6.875 -1.703125 7.6875 -1.703125 C 8.5 -1.703125 9.242188 -1.894531 9.921875 -2.28125 C 10.609375 -2.675781 11.148438 -3.242188 11.546875 -3.984375 C 11.941406 -4.734375 12.140625 -5.601562 12.140625 -6.59375 Z M 12.140625 -6.59375 "/></g></g></g><g fill="#000000" fill-opacity="1"><g transform="translate(143.101553, 468.800592)"><g><path d="M 13.484375 -13.125 L 13.484375 0 L 11.3125 0 L 11.3125 -1.9375 C 10.894531 -1.269531 10.3125 -0.75 9.5625 -0.375 C 8.820312 0 8.003906 0.1875 7.109375 0.1875 C 6.085938 0.1875 5.171875 -0.0195312 4.359375 -0.4375 C 3.546875 -0.863281 2.898438 -1.5 2.421875 -2.34375 C 1.953125 -3.1875 1.71875 -4.21875 1.71875 -5.4375 L 1.71875 -13.125 L 3.875 -13.125 L 3.875 -5.71875 C 3.875 -4.425781 4.203125 -3.429688 4.859375 -2.734375 C 5.515625 -2.046875 6.410156 -1.703125 7.546875 -1.703125 C 8.710938 -1.703125 9.628906 -2.0625 10.296875 -2.78125 C 10.972656 -3.5 11.3125 -4.546875 11.3125 -5.921875 L 11.3125 -13.125 Z M 13.484375 -13.125 "/></g></g></g><g fill="#000000" fill-opacity="1"><g transform="translate(157.209623, 468.800592)"><g><path d="M 4.03125 -17.71875 L 4.03125 0 L 1.84375 0 L 1.84375 -17.71875 Z M 4.03125 -17.71875 "/></g></g></g><g fill="#000000" fill-opacity="1"><g transform="translate(161.880128, 468.800592)"><g><path d="M 1.03125 -6.609375 C 1.03125 -7.953125 1.300781 -9.128906 1.84375 -10.140625 C 2.382812 -11.160156 3.128906 -11.945312 4.078125 -12.5 C 5.035156 -13.0625 6.097656 -13.34375 7.265625 -13.34375 C 8.410156 -13.34375 9.40625 -13.09375 10.25 -12.59375 C 11.09375 -12.101562 11.722656 -11.484375 12.140625 -10.734375 L 12.140625 -13.125 L 14.34375 -13.125 L 14.34375 0 L 12.140625 0 L 12.140625 -2.4375 C 11.710938 -1.675781 11.070312 -1.039062 10.21875 -0.53125 C 9.363281 -0.03125 8.367188 0.21875 7.234375 0.21875 C 6.066406 0.21875 5.007812 -0.0664062 4.0625 -0.640625 C 3.125 -1.222656 2.382812 -2.03125 1.84375 -3.0625 C 1.300781 -4.101562 1.03125 -5.285156 1.03125 -6.609375 Z M 12.140625 -6.59375 C 12.140625 -7.582031 11.941406 -8.441406 11.546875 -9.171875 C 11.148438 -9.910156 10.609375 -10.472656 9.921875 -10.859375 C 9.242188 -11.253906 8.5 -11.453125 7.6875 -11.453125 C 6.875 -11.453125 6.128906 -11.257812 5.453125 -10.875 C 4.785156 -10.488281 4.25 -9.925781 3.84375 -9.1875 C 3.445312 -8.457031 3.25 -7.597656 3.25 -6.609375 C 3.25 -5.609375 3.445312 -4.734375 3.84375 -3.984375 C 4.25 -3.242188 4.785156 -2.675781 5.453125 -2.28125 C 6.128906 -1.894531 6.875 -1.703125 7.6875 -1.703125 C 8.5 -1.703125 9.242188 -1.894531 9.921875 -2.28125 C 10.609375 -2.675781 11.148438 -3.242188 11.546875 -3.984375 C 11.941406 -4.734375 12.140625 -5.601562 12.140625 -6.59375 Z M 12.140625 -6.59375 "/></g></g></g><g fill="#000000" fill-opacity="1"><g transform="translate(176.85051, 468.800592)"><g><path d="M 4.5 -11.328125 L 4.5 -3.59375 C 4.5 -2.957031 4.632812 -2.503906 4.90625 -2.234375 C 5.175781 -1.972656 5.648438 -1.84375 6.328125 -1.84375 L 7.921875 -1.84375 L 7.921875 0 L 5.96875 0 C 4.75 0 3.835938 -0.273438 3.234375 -0.828125 C 2.628906 -1.390625 2.328125 -2.3125 2.328125 -3.59375 L 2.328125 -11.328125 L 0.625 -11.328125 L 0.625 -13.125 L 2.328125 -13.125 L 2.328125 -16.4375 L 4.5 -16.4375 L 4.5 -13.125 L 7.921875 -13.125 L 7.921875 -11.328125 Z M 4.5 -11.328125 "/></g></g></g><g fill="#000000" fill-opacity="1"><g transform="translate(184.3475, 468.800592)"><g><path d="M 13.828125 -7.0625 C 13.828125 -6.644531 13.800781 -6.207031 13.75 -5.75 L 3.25 -5.75 C 3.332031 -4.457031 3.773438 -3.445312 4.578125 -2.71875 C 5.390625 -1.988281 6.367188 -1.625 7.515625 -1.625 C 8.460938 -1.625 9.25 -1.84375 9.875 -2.28125 C 10.507812 -2.726562 10.953125 -3.316406 11.203125 -4.046875 L 13.5625 -4.046875 C 13.207031 -2.785156 12.503906 -1.757812 11.453125 -0.96875 C 10.398438 -0.175781 9.085938 0.21875 7.515625 0.21875 C 6.273438 0.21875 5.160156 -0.0625 4.171875 -0.625 C 3.191406 -1.1875 2.421875 -1.976562 1.859375 -3 C 1.304688 -4.03125 1.03125 -5.226562 1.03125 -6.59375 C 1.03125 -7.945312 1.300781 -9.132812 1.84375 -10.15625 C 2.382812 -11.175781 3.144531 -11.960938 4.125 -12.515625 C 5.113281 -13.066406 6.242188 -13.34375 7.515625 -13.34375 C 8.765625 -13.34375 9.867188 -13.070312 10.828125 -12.53125 C 11.785156 -11.988281 12.523438 -11.238281 13.046875 -10.28125 C 13.566406 -9.332031 13.828125 -8.257812 13.828125 -7.0625 Z M 11.5625 -7.515625 C 11.5625 -8.347656 11.378906 -9.0625 11.015625 -9.65625 C 10.648438 -10.257812 10.148438 -10.71875 9.515625 -11.03125 C 8.890625 -11.34375 8.191406 -11.5 7.421875 -11.5 C 6.316406 -11.5 5.378906 -11.144531 4.609375 -10.4375 C 3.835938 -9.738281 3.394531 -8.765625 3.28125 -7.515625 Z M 11.5625 -7.515625 "/></g></g></g></svg>